<?xml version="1.0" encoding="utf-8"?>
<!-- Generator: Adobe Illustrator 27.5.0, SVG Export Plug-In . SVG Version: 6.00 Build 0)  -->
<svg version="1.1" xmlns="http://www.w3.org/2000/svg" xmlns:xlink="http://www.w3.org/1999/xlink" x="0px" y="0px"
	 viewBox="0 0 500 500" style="enable-background:new 0 0 500 500;" xml:space="preserve">
<g id="BACKGROUND">
	<rect style="fill:#EDB990;" width="500" height="500"/>
</g>
<g id="OBJECTS">
	<g>
		<defs>
			<rect id="SVGID_1_" width="500" height="500"/>
		</defs>
		<clipPath id="SVGID_00000040553473334374444190000016860885548178819738_">
			<use xlink:href="#SVGID_1_"  style="overflow:visible;"/>
		</clipPath>
		<g style="clip-path:url(#SVGID_00000040553473334374444190000016860885548178819738_);">
			<g>
				<path style="fill:#F2C5A3;" d="M522.542,256.585c-27.048-44.701-74.812-76.798-126.711-82.815
					c-47.009-5.45-93.63,9.538-139.388,21.614c-45.757,12.076-95.228,21.21-139.575,4.692
					c-20.036-7.463-37.879-19.806-57.408-28.507c-19.53-8.701-42.386-13.582-62.121-5.359c-24.6,10.251-37.24,37.459-44.294,63.158
					c-28.232,102.858,0.705,219.493,73.742,297.226c73.036,77.733,187.645,113.872,292.06,92.096
					c63.987-13.345,122.816-48.192,166.949-96.185c41.91-45.577,60.14-87.643,62.415-147.759
					C549.795,332.864,544.68,293.171,522.542,256.585z"/>
			</g>
		</g>
		<g style="opacity:0.5;clip-path:url(#SVGID_00000040553473334374444190000016860885548178819738_);">
			<path style="fill:#FFFDFF;" d="M160.249,227.688c0.745-5.012,1.905-9.967,3.489-14.812
				c11.069-33.825,42.208-59.734,77.484-64.469c21.617-2.902,43.494,1.761,64.65,6.272c22.21,4.736,45.173,9.632,67.464,5.545
				c9.4-1.721,18.667-5.063,27.629-8.294c11.888-4.285,24.178-8.716,37.048-9.49c34.267-2.06,68.569,24.683,78.096,60.884
				l-1.393,0.367l1.393-0.367c8.037,30.55-0.436,67.555-22.099,96.577c-4.375,5.859-10.037,10.365-15.512,14.728
				c-4.82,3.838-9.804,7.807-13.828,12.658c-8.313,10.01-15.204,22.776-21.689,40.17c-2.15,5.764-4.176,11.728-6.139,17.497
				c-6.307,18.554-12.831,37.739-24.514,53.846c-22.112,30.493-61.846,46.332-98.872,39.412
				c-37.026-6.92-68.357-36.039-77.965-72.462c-2.026-7.675-3.178-15.763-4.294-23.581c-2.251-15.767-4.375-30.66-12.995-43.072
				c-5.072-7.306-12.16-13.146-19.016-18.795c-3.713-3.059-7.555-6.222-11.079-9.614
				C166.135,289.545,155.798,257.659,160.249,227.688z M513.321,204.058c-9.186-34.922-42.192-60.725-75.134-58.744
				c-12.46,0.749-24.552,5.11-36.247,9.324c-9.071,3.271-18.451,6.653-28.088,8.419c-22.849,4.189-46.098-0.769-68.581-5.563
				c-20.916-4.458-42.542-9.07-63.666-6.234c-34.202,4.591-64.397,29.713-75.129,62.511c-10.754,32.792-1.241,70.912,23.629,94.841
				c3.444,3.314,7.241,6.443,10.913,9.467c7.007,5.774,14.25,11.743,19.55,19.372c9.01,12.974,11.282,28.903,13.479,44.309
				c1.105,7.737,2.246,15.741,4.225,23.252c9.332,35.37,39.756,63.649,75.712,70.365c35.955,6.721,74.54-8.657,96.013-38.268
				c11.429-15.755,17.879-34.732,24.119-53.083c1.969-5.788,4.004-11.773,6.165-17.575c6.602-17.709,13.647-30.739,22.171-41.008
				c4.214-5.076,9.317-9.139,14.253-13.07c5.578-4.441,10.843-8.636,14.996-14.199C512.856,269.841,521.149,233.773,513.321,204.058
				L513.321,204.058z"/>
		</g>
	</g>
	<path style="fill:#EDA164;" d="M289.623,449.939l0.005-0.309c0.044-2.736,1.05-5.37,2.08-7.842l0.057-0.128
		c0.324-0.726,0.655-1.468,0.952-2.197c0.373-0.913,0.721-1.879,1.033-2.87c-0.072-0.479-0.166-0.968-0.281-1.458
		c-0.088-0.416-0.209-0.965-0.367-1.514c-0.283-0.997-0.656-2.003-1.113-2.996c-0.455-0.987-0.997-1.974-1.614-2.935
		c-0.74-1.158-1.359-2.027-2.006-2.82c-1.392-1.721-3.004-3.311-4.711-4.995l-0.714-0.705c-0.383-0.379-0.768-0.761-1.139-1.144
		c-0.443-0.461-0.882-0.928-1.312-1.402c-0.96-1.061-1.756-2.034-2.435-2.974c-1.107-1.534-2.08-3.234-2.893-5.058
		c-0.705-1.67-1.272-3.447-1.731-5.431c-0.974-3.996-1.059-8.005-1.013-11.403l0.033-1.432c0.019-0.386,0.046-0.77,0.074-1.155
		l0.019-0.265c0.069-0.944,0.149-1.888,0.234-2.837l0.316-3.367c0.072-0.767,0.147-1.56,0.252-2.329
		c0.459-3.582,0.79-7.431,0.985-11.439l0.066-1.368l0.515,1.269c0.528,1.299,1.149,2.647,1.851,4.007
		c0.588,1.129,1.296,2.361,2.229,3.876c1.596,2.583,3.325,5.073,4.96,7.401c0.521,0.737,1.047,1.473,1.573,2.207
		c1.173,1.639,2.386,3.334,3.488,4.991c0.866,1.297,1.609,2.473,2.283,3.615l1.037,1.797c0.352,0.626,0.684,1.247,0.986,1.845
		c1.03,2.039,1.874,4.129,2.506,6.204c0.688,2.086,1.19,4.17,1.493,6.198c0.264,1.96,0.512,4.059,0.54,6.128
		c0.012,0.686,0.003,1.381-0.023,2.077c1.887-8.345,4.119-16.439,6.654-24.124l-0.24,0.159l0.667-1.46l0.168-0.521l0.003-0.126
		c0.023-0.907,0.045-1.764-0.032-2.66c-0.072-0.944-0.217-1.912-0.43-2.879c-0.213-0.967-0.498-1.951-0.847-2.925
		c-0.417-1.171-0.784-2.068-1.19-2.91c-0.953-1.997-2.154-3.919-3.427-5.954l-1.338-2.162c-0.328-0.55-0.643-1.101-0.95-1.657
		c-0.685-1.241-1.236-2.355-1.676-3.424c-0.72-1.728-1.272-3.582-1.642-5.513c-0.304-1.703-0.451-3.537-0.45-5.607
		c0.003-0.91,0.039-1.859,0.108-2.824c0.034-0.471,0.075-0.941,0.125-1.42c0.061-0.463,0.128-0.926,0.203-1.388
		c0.278-1.734,0.654-3.534,1.149-5.499c0.381-1.604,0.899-3.179,1.4-4.702l0.711-2.133c0.425-1.27,0.864-2.584,1.327-3.868
		c0.784-2.13,1.357-3.77,1.858-5.32c0.195-0.591,0.376-1.19,0.558-1.789c0.094-0.309,0.188-0.619,0.284-0.93
		c0.294-0.922,0.564-1.839,0.804-2.725l0.366-1.356l0.224,1.386c0.222,1.378,0.525,2.821,0.9,4.288
		c0.362,1.343,0.789,2.735,1.306,4.257c0.97,2.851,2.091,5.652,3.157,8.274c0.274,0.663,0.551,1.324,0.826,1.984
		c0.843,2.017,1.715,4.103,2.477,6.122c0.55,1.451,1.006,2.755,1.396,3.986c0.383,1.205,0.82,2.608,1.154,3.996
		c0.552,2.235,0.901,4.524,1.065,6.995c0.135,1.692,0.152,3.384,0.051,5.051l2.103-4.372l3.005-5.703
		c0.266-0.524,0.563-1.038,0.851-1.534l3.19-5.512c0.524-2.889,0.395-6.066-0.383-9.446c-0.474-2.16-1.21-4.302-1.989-6.57
		l-0.191-0.555c-0.38-1.108-0.816-2.396-1.194-3.668c-0.365-1.214-0.651-2.427-0.874-3.713c-0.311-1.837-0.431-3.758-0.356-5.71
		c0.048-1.131,0.126-2.028,0.246-2.823c0.135-0.895,0.314-1.819,0.531-2.745c0.401-1.715,0.954-3.523,1.647-5.379
		c0.592-1.504,1.331-3.115,2.325-5.068c1.21-2.445,2.653-4.788,4.047-7.054c0.523-0.849,1.047-1.701,1.561-2.56
		c0.307-0.521,0.626-1.026,0.946-1.531c0.177-0.279,0.354-0.559,0.529-0.841c0.489-0.786,0.972-1.578,1.444-2.381
		c0.497-0.846,0.948-1.643,1.378-2.436l1.946-3.663l-0.053,1.323c-0.256,6.406,0.905,12.881,2.028,19.143
		c0.955,5.331,1.858,10.367,1.938,15.306c0.016,1.003-0.006,2.006-0.066,2.981c-0.062,0.992-0.168,1.991-0.262,2.876
		c-0.165,1.42-0.412,2.824-0.737,4.19l2.793-3.33l3.249-3.547l-0.226,0.035l0.786-0.686l1.143-1.198l0.954-0.959
		c1.256-2.828,1.887-6.34,1.825-10.157c-0.055-2.244-0.377-4.518-0.717-6.925l-0.073-0.517c-0.314-2.301-0.646-4.976-0.602-7.601
		c0.04-1.96,0.278-3.871,0.708-5.681c0.423-1.727,1.03-3.504,1.803-5.284c0.362-0.833,0.768-1.684,1.205-2.528
		c0.44-0.853,0.931-1.643,1.406-2.409c0.923-1.467,1.961-2.958,3.173-4.555c0.489-0.661,1.019-1.289,1.531-1.898l0.212-0.252
		c0.593-0.7,1.194-1.394,1.801-2.089c0.329-0.371,0.656-0.744,0.984-1.119c0.876-1,1.782-2.033,2.703-3.007
		c1.498-1.624,2.633-2.898,3.679-4.132l1.791-2.136c0.609-0.733,1.191-1.468,1.733-2.184l0.839-1.111l-0.304,1.358
		c-1.368,6.121-1.387,12.608-1.406,18.881c-0.016,5.514-0.032,10.722-0.895,15.648c-0.429,2.589-1.107,5.066-2.07,7.567
		c-0.681,1.853-1.514,3.643-2.481,5.339c1.12-0.825,2.253-1.649,3.382-2.461l1.164-0.83l2.249-1.48l-0.464,0.094l1.621-0.926
		c0.883-0.504,1.762-1.13,2.618-1.867c0.822-0.673,1.591-1.438,2.286-2.275c0.692-0.833,1.325-1.754,1.878-2.733
		c0.524-0.952,1.067-1.986,1.493-3.106c0.75-1.926,1.246-3.997,1.77-6.189l0.131-0.547c0.517-2.036,1.16-4.57,2.127-6.84
		c0.387-0.903,0.781-1.698,1.207-2.432c0.445-0.747,0.939-1.485,1.47-2.195c0.999-1.338,2.181-2.649,3.517-3.901
		c1.162-1.052,2.477-2.067,4.139-3.194c0.697-0.47,1.438-0.943,2.203-1.406c0.643-0.39,1.315-0.739,1.963-1.077l0.327-0.171
		c1.673-0.859,3.368-1.653,4.661-2.251c0.902-0.406,1.814-0.79,2.726-1.173c0.675-0.284,1.35-0.568,2.018-0.86
		c0.627-0.281,1.256-0.557,1.884-0.832c2.464-1.081,5.012-2.2,7.389-3.584l1.11-0.646l-0.705,1.073
		c-1.333,2.027-2.596,4.36-3.859,7.129c-0.998,2.223-1.882,4.557-2.736,6.814l-1.743,4.609c-0.543,1.457-1.008,2.642-1.463,3.731
		c-1.051,2.521-2.171,4.768-3.424,6.874c-0.789,1.296-1.668,2.519-2.614,3.639c-0.471,0.545-0.944,1.091-1.432,1.619
		c-0.486,0.521-0.998,1.029-1.522,1.51c-0.954,0.88-2.038,1.738-3.31,2.618c-1.118,0.808-2.327,1.558-3.596,2.231
		c-2.925,1.492-5.457,2.528-7.969,3.26l-0.738,0.21c-1.146,0.327-2.332,0.666-3.538,0.936c-1.403,0.322-2.884,0.599-4.402,0.823
		c-5.83,3.644-10.728,7.121-14.968,10.628c-0.476,0.635-0.985,1.246-1.502,1.84c1.063-0.587,2.133-1.13,3.162-1.646
		c0.83-0.41,1.654-0.799,2.455-1.159c0.786-0.328,1.617-0.653,2.544-0.992c2.033-0.742,4.737-1.643,7.624-2.021
		c3.048-0.425,5.644-0.415,8.168,0.031c1.403,0.236,2.889,0.605,4.418,1.098c1.55,0.505,2.982,1.057,4.377,1.689
		c2.878,1.287,5.701,2.805,8.581,4.379l4.162,2.28c1.575,0.853,2.865,1.517,4.058,2.089c1.435,0.687,2.715,1.233,3.918,1.67
		c1.397,0.525,2.645,0.898,3.815,1.14l2.645,0.547l-2.701,0.051c-0.598,0.012-1.225,0.046-1.864,0.103
		c-0.673,0.056-1.264,0.135-1.81,0.241c-1.059,0.192-2.189,0.446-3.552,0.799l-1.763,0.472l-1.741,0.549
		c-1.114,0.35-2.314,0.72-3.55,1.051l-2.309,0.622c-0.784,0.201-1.584,0.386-2.377,0.548c-0.809,0.166-1.636,0.315-2.45,0.44
		c-0.979,0.174-1.745,0.295-2.483,0.391c-1.557,0.21-3.264,0.348-5.215,0.421c-1.792,0.093-3.639,0.089-5.49-0.012
		c-0.803-0.043-1.639-0.113-2.48-0.206c-0.812-0.077-1.639-0.177-2.457-0.297c-1.581-0.231-3.216-0.543-5-0.955
		c-3.156-0.745-6.486-1.656-10.478-2.871c-4.543-1.406-9.291-0.704-13.883-0.026l-0.217,0.032l-4.018,4.367
		c-0.433,0.471-0.893,0.974-1.321,1.499l-3.87,4.626c-0.278,0.33-0.539,0.675-0.801,1.018c-0.131,0.173-0.263,0.346-0.396,0.518
		c-0.789,2.247-1.838,4.348-2.871,6.213c0.215-0.187,0.43-0.374,0.647-0.561c0.726-0.598,1.512-1.189,2.145-1.665
		c1.283-0.948,2.816-2.053,4.468-3.061c2.726-1.586,4.91-2.631,7.086-3.387c2.753-0.907,5.368-1.382,8.002-1.454
		c2.707-0.026,5.697,0.362,9.142,1.188c0.747,0.179,1.52,0.379,2.298,0.595c0.775,0.222,1.548,0.455,2.319,0.697
		c1.569,0.491,3.13,1.015,4.582,1.507l0.713,0.242c2.807,0.953,5.458,1.853,8.095,2.617c1.534,0.438,2.888,0.763,4.139,0.994
		c1.251,0.233,2.528,0.381,3.902,0.452l2.771,0.143l-2.737,0.456c-1.21,0.202-2.294,0.56-3.483,0.971
		c-1.005,0.358-2.065,0.787-3.323,1.344l-6.448,3.24c-1.42,0.713-2.887,1.364-4.359,1.935c-1.517,0.605-3.012,1.189-4.626,1.681
		c-0.804,0.25-1.636,0.485-2.463,0.696c-0.864,0.245-1.685,0.457-2.512,0.645c-1.68,0.386-3.492,0.703-5.38,0.94
		c-2.946,0.428-6.116,0.555-9.975,0.398c-3.247-0.098-6.664-0.402-10.797-0.83c-0.626-0.064-1.237-0.095-1.815-0.092
		c-0.575,0.006-1.176,0.041-1.788,0.102c-1.125,0.115-2.289,0.32-3.559,0.626c-1.051,0.254-2.197,0.584-3.505,1.008
		c-0.827,0.266-1.625,0.569-2.397,0.863c-0.281,0.107-0.561,0.213-0.841,0.317c-0.233,0.317-0.471,0.616-0.683,0.854l-1.417,2.457
		c-0.274,0.472-0.557,0.96-0.807,1.456l-3.008,5.711l-2.816,5.86c-0.286,0.572-0.547,1.174-0.799,1.756l-0.947,2.171
		c-0.222,1.055-0.497,2.12-0.817,3.164l-0.19,0.63c-0.042,0.142-0.085,0.284-0.129,0.427c0.188-0.269,0.38-0.537,0.576-0.801
		c0.655-0.86,1.314-1.694,1.96-2.479c0.683-0.831,1.372-1.636,2.049-2.394l0.535-0.591l0.559-0.562
		c0.375-0.373,0.755-0.742,1.139-1.107c1.798-1.691,3.789-3.449,6.158-4.837c1.174-0.709,2.368-1.328,3.552-1.84
		c0.586-0.25,1.221-0.511,1.903-0.731c0.668-0.213,1.35-0.4,2.028-0.558c2.711-0.624,5.698-0.882,9.132-0.79
		c3.244,0.104,6.497,0.464,9.551,0.825l4.672,0.566c1.78,0.215,3.211,0.36,4.502,0.457c1.576,0.118,2.947,0.165,4.195,0.142
		c1.538-0.021,2.812-0.117,3.896-0.294l2.698-0.438l-2.537,1.017c-3.476,1.394-6.167,3.57-9.017,5.874
		c-0.841,0.68-1.711,1.383-2.596,2.059l-0.14,0.108c-1.152,0.891-2.343,1.813-3.628,2.661c-0.666,0.448-1.348,0.871-2.04,1.297
		c-0.673,0.438-1.377,0.869-2.09,1.281c-1.492,0.871-3.142,1.672-4.557,2.34c-1.583,0.762-3.262,1.464-4.988,2.082
		c-6.01,2.217-12.486,3.133-20.329,4.103c-4.729,0.542-8.766,3.118-12.668,5.609l-0.124,0.079
		c-2.564,7.488-4.857,15.522-6.825,23.92c0.181-0.367,0.362-0.729,0.544-1.084c0.583-1.135,1.216-2.342,1.984-3.505
		c0.76-1.188,1.492-2.248,2.238-3.239c0.406-0.539,0.818-1.059,1.224-1.544c0.407-0.492,0.868-0.961,1.314-1.415l0.057-0.057
		c0.981-0.983,2.001-1.88,3.033-2.666c1.298-0.981,2.378-1.667,3.5-2.226c2.425-1.235,5.272-2.212,8.707-2.986
		c3.044-0.664,6.231-1.088,9.501-1.5l4.663-0.583c1.788-0.22,3.22-0.422,4.506-0.638c3.031-0.502,5.598-1.188,7.846-2.099
		l2.362-0.956l-2.073,1.482c-0.482,0.344-0.966,0.717-1.433,1.103c-0.397,0.352-0.804,0.74-1.279,1.218
		c-0.737,0.744-1.493,1.576-2.379,2.617l-0.564,0.672l-1.597,2.116c-0.639,0.853-1.341,1.756-2.203,2.832
		c-1.588,2.119-3.624,4.384-6.413,7.134c-2.171,2.015-4.845,4.378-8.221,6.62l-0.131,0.085c-0.646,0.423-1.276,0.835-1.918,1.236
		c-0.668,0.414-1.382,0.832-2.124,1.242c-1.389,0.768-2.875,1.512-4.544,2.275l-2.376,1.066c-0.798,0.352-1.614,0.699-2.445,1.045
		c-1.721,0.716-3.501,1.421-5.168,2.075c-1.139,0.449-2.224,1.007-3.224,1.659c-0.94,0.618-1.876,1.337-2.861,2.201
		c-0.813,0.711-1.675,1.537-2.636,2.525c-0.425,0.435-0.842,0.875-1.247,1.308l-1.122,1.27c-0.367,1.204-0.761,2.313-1.203,3.388
		c-0.305,0.744-0.643,1.497-0.973,2.232l-0.051,0.113c-1.054,2.574-1.93,4.9-1.964,7.288l-0.004,0.296L289.623,449.939z"/>
	<g>
		<g>
			<g>
				<g>
					
						<ellipse transform="matrix(0.0454 -0.999 0.999 0.0454 -37.0397 191.0682)" style="fill:#F2C5A3;" cx="81.45" cy="114.914" rx="30.119" ry="30.119"/>
				</g>
			</g>
		</g>
		<g>
			<g>
				<g>
					<path style="fill:#F2C5A3;" d="M449.169,127.104c-6.733,0.275-12.414-4.959-12.689-11.691
						c-0.275-6.732,4.959-12.413,11.692-12.689c6.732-0.275,12.413,4.959,12.689,11.691
						C461.136,121.148,455.902,126.829,449.169,127.104z"/>
				</g>
			</g>
		</g>
	</g>
	<g>
		<g>
			<path style="fill:#F9F3E8;" d="M154.064,148.24h-39.846c-2.633,0-4.767,2.134-4.767,4.767v27.52c0,2.633,2.134,4.767,4.767,4.767
				h15.48l4.443,7.695l4.443-7.695h15.48c2.633,0,4.767-2.134,4.767-4.767v-27.52C158.832,150.374,156.697,148.24,154.064,148.24z"
				/>
			<path style="fill:#E1745F;" d="M147.203,156.042c-3.607-3.607-9.454-3.607-13.061,0c-3.607-3.607-9.454-3.607-13.061,0
				c-3.607,3.607-3.607,9.454,0,13.061l13.061,13.061l13.061-13.061C150.809,165.497,150.809,159.649,147.203,156.042z"/>
		</g>
		<polygon style="fill:#F9F3E8;" points="359.494,222.064 335.88,215.737 342.207,239.351 347.147,234.412 357.38,244.645 
			364.788,237.236 354.555,227.003 		"/>
	</g>
	<g>
		<g>
			<g>
				<path style="fill:#6369D3;" d="M190.267,344.367c4.572,3.083,7.446,8.164,9.918,13.326c0.117,0.241,0.233,0.482,0.35,0.724
					c0.505,1.075,1.002,2.17,1.471,3.283c2.518,5.961,4.306,12.49,3.488,20.082c-0.612,5.627-3.526,13.576-8.207,19.775
					c-0.633,0.849-1.307,1.659-2.016,2.435c-2.019,2.215-4.305,4.075-6.827,5.334c-10.055,5.022-23.678,4.086-32.125,2.978
					c-2.991-0.391-5.945-1.052-8.551-2.15c-1.164-0.483-2.266-1.051-3.26-1.734c-2.307-1.554-4.1-3.65-5.042-6.459
					c-0.368-1.089-0.593-2.246-0.704-3.454c-0.092-0.813-0.12-1.652-0.11-2.512c0.031-4.278,1.016-9.014,1.633-13.605
					c0.121-0.886,0.223-1.761,0.305-2.625c0.191-1.95,0.263-3.855,0.117-5.662c-0.158-2.007-0.636-3.94-1.994-5.028
					c-1.982-1.593-5.372-1.058-8.434-0.777c-6.156,0.575-12.108-0.439-16.542-3.1c-1.187-0.722-2.278-1.555-3.218-2.507
					c-2.597-2.613-4.187-6.126-4.234-10.565c-0.007-0.094-0.007-0.195-0.007-0.296c0.005-0.793,0.053-1.603,0.139-2.421
					c0.515-4.747,2.328-9.899,3.673-14.872c0.244-0.914,0.476-1.825,0.681-2.718c0.655-2.902,1.032-5.706,0.763-8.282
					c-0.011-0.17-0.03-0.333-0.053-0.5c-0.111-0.773-0.27-1.504-0.484-2.2c-1.24-4.022-4.168-6.732-7.425-9.217
					c-1.096-0.838-2.22-1.646-3.336-2.474c-2.637-1.955-5.193-4.006-6.999-6.694c-0.675-1.018-1.233-2.129-1.662-3.335
					c-0.3-0.807-0.54-1.645-0.721-2.527c-0.902-4.266-0.529-9.278,1.045-14.381c0.281-0.922,0.604-1.848,0.961-2.77
					c0.722-1.852,1.598-3.703,2.632-5.52c0.794-1.421,1.682-2.811,2.66-4.173c0.092,0.247,0.191,0.486,0.283,0.733
					c0.243,0.623,0.492,1.251,0.736,1.874c0.409,1.056,0.823,2.116,1.239,3.164c0.759,1.94,1.517,3.893,2.276,5.832
					c0.246,0.64,0.505,1.278,0.761,1.928c0.515,1.258,1.046,2.517,1.639,3.733c2.246,4.702,5.179,8.852,9.992,10.54
					c0.488,0.174,0.993,0.32,1.514,0.438c0.306,0.073,0.62,0.125,0.935,0.178c4.909,0.778,10.828-0.69,16.6-1.964
					c0.87-0.188,1.741-0.376,2.604-0.557c5.013-1.009,9.783-1.582,13.547-0.065c0.374,0.152,0.733,0.32,1.089,0.512
					c0.435,0.24,0.841,0.509,1.221,0.797c8.188,6.272,3.088,23.676,6.863,34.138c0.417,1.179,0.954,2.27,1.643,3.244
					c0.342,0.499,0.73,0.97,1.155,1.402c0.983,1.007,2.137,1.784,3.415,2.389c0.689,0.336,1.417,0.621,2.183,0.856
					c2.476,0.801,5.249,1.188,8.063,1.541c0.795,0.103,1.593,0.194,2.381,0.305c3.315,0.423,6.578,0.942,9.362,2.166
					c0.175,0.079,0.349,0.158,0.517,0.245C188.907,343.525,189.607,343.929,190.267,344.367z"/>
			</g>
			<g>
				<path style="fill:#7A7FDE;" d="M179.894,388.728l-0.092,0.522c3.084,2.931,6.428,5.587,10.006,7.957
					c3.278-12.84,6.857-25.814,10.726-38.789c0.505,1.075,1.002,2.17,1.471,3.283c-3.593,12.251-6.941,24.487-10.008,36.599
					l-0.071,0.266c1.733,1.067,3.527,2.06,5.361,2.991c-0.633,0.849-1.307,1.659-2.016,2.435c-2.254-1.156-4.443-2.41-6.551-3.759
					l-40.951,9.921c-1.164-0.483-2.266-1.051-3.26-1.734l41.426-10.036c-3.285-2.324-6.361-4.899-9.215-7.698l-37.957,7.821
					c-0.092-0.813-0.12-1.652-0.11-2.512l36.024-7.424c-2.791-2.986-5.342-6.194-7.622-9.637l-26.768,3.456
					c0.121-0.886,0.223-1.761,0.305-2.625l24.94-3.22c-1.192-1.96-2.329-3.968-3.356-6.061c-1.49-3.041-2.828-6.241-4.099-9.422
					c-14.898,1.972-29.777,3.367-44.338,4.136c-1.187-0.722-2.278-1.555-3.218-2.507c15.26-0.685,30.907-2.061,46.582-4.092
					c-0.032-0.088-0.068-0.181-0.105-0.274c-0.845-2.123-1.703-4.273-2.6-6.401l-37.433,0.225
					c-3.523,0.018-7.112,0.045-10.678-0.023c-0.007-0.094-0.007-0.195-0.007-0.296c0.005-0.793,0.053-1.603,0.139-2.421
					c3.858,0.084,7.746,0.065,11.565,0.039l35.249-0.212c-1.733-3.867-3.674-7.596-6.062-10.895
					c-0.383-0.538-0.784-1.065-1.196-1.572c-11.827-0.926-23.863-1.674-35.884-2.233c0.244-0.914,0.476-1.825,0.681-2.718
					c10.911,0.505,21.836,1.169,32.612,1.967c-3.661-3.87-7.929-7.172-12.323-10.26l-19.527,0.01c-0.011-0.17-0.03-0.333-0.053-0.5
					c-0.111-0.773-0.27-1.504-0.484-2.2l16.125-0.008c-0.664-0.443-1.324-0.881-1.976-1.327c-3.621-2.426-7.345-4.935-10.827-7.649
					l-0.25-0.02c-3.415-0.257-6.922-0.326-10.497-0.214c-1.096-0.838-2.22-1.646-3.336-2.474c3.559-0.258,7.068-0.332,10.494-0.238
					c-2.863-2.546-5.702-5.563-8.148-9.063l-1.63-0.316c-2.947-0.567-6.088-0.709-9.377-0.411c-0.3-0.807-0.54-1.645-0.721-2.527
					c3.365-0.428,6.592-0.437,9.632-0.028c-2.271-3.957-3.994-8.451-4.741-13.498l-3.846-0.855c0.281-0.922,0.604-1.848,0.961-2.77
					l2.557,0.573c-0.132-1.953-0.115-3.982,0.075-6.093c0.794-1.421,1.682-2.811,2.66-4.173c0.092,0.247,0.191,0.486,0.283,0.733
					c-0.261,1.71-0.407,3.37-0.443,4.974l1.179-3.1c0.409,1.056,0.823,2.116,1.239,3.164l-2.127,5.594
					c0.521,3.99,1.695,7.616,3.275,10.916c0.578-2.903,1.2-5.822,1.889-8.75c0.515,1.258,1.046,2.517,1.639,3.733
					c-0.617,2.822-1.175,5.643-1.674,8.432c2.916,4.816,6.67,8.789,10.389,11.961l1.277-9.854c0.488,0.174,0.993,0.32,1.514,0.438
					c0.306,0.073,0.62,0.125,0.935,0.178l-1.442,11.089c3.537,2.767,7.339,5.335,11.046,7.813c1.449,0.971,2.909,1.952,4.359,2.953
					c0.693-7.855,1.577-15.82,2.637-23.819c0.87-0.188,1.741-0.376,2.604-0.557c-1.16,8.761-2.106,17.479-2.827,26.061
					c4.201,2.977,8.245,6.182,11.769,9.922c1.168-11.872,2.709-23.955,4.605-36.048c0.374,0.152,0.733,0.32,1.089,0.512
					c0.435,0.24,0.841,0.509,1.221,0.797c-1.938,12.561-3.474,25.084-4.615,37.373c0.528,0.647,1.049,1.302,1.541,1.987
					c2.332,3.216,4.232,6.806,5.925,10.533l4.012-15.754c0.417,1.179,0.954,2.27,1.643,3.244l-4.091,16.07
					c0.866,2.07,1.693,4.162,2.507,6.226c0.157,0.381,0.311,0.774,0.468,1.155c1.743-6.524,3.641-13.09,5.687-19.66
					c0.689,0.336,1.417,0.621,2.183,0.856c-2.11,6.799-4.048,13.588-5.816,20.321l-0.356,1.344l-0.525,0.067
					c1.09,2.704,2.229,5.396,3.492,7.96c1.063,2.156,2.233,4.24,3.481,6.252c2.202-11.353,4.808-22.859,7.786-34.403
					c0.795,0.103,1.593,0.194,2.381,0.305c-3.028,11.758-5.659,23.472-7.861,35.027c-0.133,0.686-0.368,1.216-0.648,1.632
					c2.367,3.482,4.999,6.737,7.901,9.727c2.627-14.459,6.148-29.201,10.487-43.976c0.734,0.349,1.435,0.754,2.094,1.192
					C185.938,359.283,182.465,374.157,179.894,388.728z"/>
			</g>
		</g>
	</g>
	<g>
		<defs>
			<rect id="SVGID_00000077294532581225454820000005867232056588800437_" width="500" height="500"/>
		</defs>
		<clipPath id="SVGID_00000047744832538588806860000009592839335760115640_">
			<use xlink:href="#SVGID_00000077294532581225454820000005867232056588800437_"  style="overflow:visible;"/>
		</clipPath>
		<g style="clip-path:url(#SVGID_00000047744832538588806860000009592839335760115640_);">
			
				<rect x="389.081" y="309.366" transform="matrix(-0.9999 0.0171 -0.0171 -0.9999 797.6717 659.3987)" style="fill:#392C31;" width="13.867" height="47.493"/>
			<g>
				<path style="fill:#CF6F63;" d="M408.564,338.102c0,0,5.252-1.293,9.231,0.358c2.351,0.976,3.21,3.82,1.897,6.001
					c-1.304,2.166-4.065,4.519-9.912,4.598l-2.828-3.596L408.564,338.102z"/>
				<g>
					<path style="fill:#B96359;" d="M315.406,446.684c0,0,5.122,14.813,27.226,17.294c0.431,0.048,0.872,0.095,1.314,0.13
						c0.236,0.023,0.478,0.044,0.718,0.059c1.269,0.094,2.577,0.144,3.927,0.147c0.296,0.003,0.595-0.002,0.898-0.004
						c0,0,22.469-56.769,37.239-76.607c0.487-0.655,0.777-1.511,1.447-1.853c13.234-6.808,14.612-16.529,14.612-16.529
						s0.009,0,0.027,0c0.372-0.014,4.393-0.211,8.031-2.468c2.928-1.816,3.792-5.662,1.832-8.5c-0.219-0.32-0.467-0.655-0.745-1.005
						c-0.014-0.016-0.033-0.034-0.045-0.054c0,0,0.052-0.033,0.144-0.1c0.339-0.246,1.219-0.949,1.968-2.086
						c1.053-1.603,1.149-3.686,0.206-5.352c-0.486-0.863-1.238-1.844-2.404-2.806c-0.512-0.421-1.101-0.839-1.779-1.243
						c0,0,0.052-0.051,0.138-0.152c0.36-0.407,1.354-1.63,2.088-3.517c1.028-2.643-0.207-5.562-2.661-6.807
						c-0.253-0.126-0.517-0.238-0.797-0.328c-0.159-0.052-0.32-0.1-0.486-0.147c0,0,0.023-0.056,0.052-0.159
						c0.105-0.313,0.32-1.08,0.38-2.054c0.136-2.261-1.037-4.28-2.838-5.381c-0.909-0.555-1.978-0.878-3.12-0.882
						c-3.901-0.009-11.112,0.092-17.234,0.855c-3.6,0.447-6.757,2.533-8.615,5.651c-0.546,0.918-1.111,1.957-1.656,3.101
						c-0.726,1.527-1.21,3.156-1.534,4.815c-0.012,0.061-0.027,0.126-0.039,0.197c-3.097,15.777-9.358,30.767-18.371,44.08
						C341.764,405.021,323.026,438.855,315.406,446.684z"/>
					<path style="fill:#B34D52;" d="M342.632,463.978c2.157,0.246,4.445,0.364,6.857,0.332c0,0,22.469-56.769,37.239-76.607
						c0.487-0.655,0.777-1.511,1.447-1.853c13.234-6.808,14.612-16.529,14.612-16.529c0.067-0.426,0.118-0.847,0.152-1.258
						c0,0-2.525,7.906-13.45,11.882c-3.805,1.385-6.984,4.095-9.122,7.534C372.605,399.961,352.464,433.948,342.632,463.978z"/>
					<path style="fill:#B34D52;" d="M400.556,344.489c2.916-0.039,7.242,0.645,9.605,1.065c0.36-0.407,1.354-1.63,2.088-3.517
						c1.028-2.643-0.207-5.562-2.661-6.807c0.25,0.232,0.472,0.464,0.67,0.693c2.43,2.818,0.36,7.187-3.36,7.277
						C402.954,343.288,400.694,344.419,400.556,344.489z"/>
				</g>
				<path style="fill:#B34D52;" d="M403,366.669l-0.1,1.482l-0.002,0.004l-0.054,0.771l-0.03,0.395
					c0.372-0.014,4.393-0.211,8.031-2.468c2.928-1.816,3.792-5.662,1.832-8.5c-0.219-0.32-0.467-0.655-0.745-1.005l-0.693-0.492
					c0,0,0.035,0.067,0.091,0.189c1.732,3.706-0.327,8.081-4.269,9.173C405.95,366.526,404.593,366.726,403,366.669z"/>
				<path style="fill:#B34D52;" d="M390.762,379.454c0,0-9.839,4.873-18.62,3.507c0,0,4.276,3.214,14.863,3.194L390.762,379.454z"/>
				<path style="fill:#B34D52;" d="M398,349.928c4.798,1.431,11.501,5.623,14.031,7.267c0.339-0.246,1.219-0.949,1.968-2.086
					c1.053-1.603,1.149-3.686,0.206-5.352c-0.486-0.863-1.238-1.844-2.404-2.806c1.135,1.37,1.671,2.532,1.851,3.504
					c0.392,2.168-1.918,3.845-3.862,2.817C403.594,350.002,398,349.928,398,349.928z"/>
				<path style="fill:#B34D52;" d="M391.57,333.417c6.588,0.094,13.379,0.786,16.787,1.18c0.105-0.313,0.32-1.08,0.38-2.054
					c0.136-2.261-1.037-4.28-2.838-5.381c1.474,1.975-0.049,4.79-2.521,4.698C395.814,331.583,391.57,333.417,391.57,333.417z"/>
				<g>
					<g>
						<path style="fill:#392C31;" d="M385.411,386.798c-2.015,0-5.309-0.341-9.941-1.87c-0.263-0.086-0.405-0.369-0.318-0.631
							c0.086-0.263,0.368-0.407,0.631-0.318c7.851,2.591,11.741,1.645,11.779,1.635c0.27-0.07,0.54,0.092,0.609,0.357
							c0.069,0.267-0.09,0.539-0.355,0.609C387.743,386.599,386.95,386.798,385.411,386.798z"/>
					</g>
					<g>
						<g>
							<path style="fill:#392C31;" d="M408.306,335.256c-0.024,0-0.048-0.002-0.072-0.005c-0.099-0.014-10.054-1.399-17.256-1.328
								c-0.275,0.027-0.503-0.218-0.507-0.493c-0.004-0.276,0.217-0.503,0.493-0.507c7.307-0.104,17.311,1.324,17.412,1.338
								c0.273,0.039,0.463,0.293,0.424,0.566C408.764,335.076,408.551,335.256,408.306,335.256z"/>
						</g>
						<g>
							<path style="fill:#392C31;" d="M410.02,346.207c-0.045,0-0.09-0.006-0.135-0.019c-0.043-0.013-4.343-1.226-9.208-1.139
								c-0.002,0-0.005,0-0.007,0c-0.273,0-0.496-0.22-0.5-0.493c-0.004-0.276,0.217-0.503,0.493-0.507
								c5.024-0.087,9.31,1.125,9.491,1.176c0.267,0.074,0.421,0.351,0.347,0.616C410.44,346.062,410.239,346.207,410.02,346.207z"
								/>
						</g>
						<g>
							<path style="fill:#392C31;" d="M411.888,357.796c-0.099,0-0.198-0.029-0.285-0.09c-0.068-0.047-6.852-4.746-12.251-6.905
								c-0.257-0.103-0.381-0.394-0.278-0.649c0.103-0.256,0.395-0.381,0.649-0.278c5.506,2.201,12.382,6.965,12.45,7.013
								c0.227,0.157,0.283,0.469,0.125,0.695C412.201,357.721,412.046,357.796,411.888,357.796z"/>
						</g>
						<g>
							<path style="fill:#392C31;" d="M402.788,369.818c-0.026,0-0.053-0.002-0.08-0.006c-0.272-0.044-0.458-0.301-0.415-0.573
								c0.755-4.716-0.819-8.549-0.835-8.587c-0.106-0.254,0.013-0.547,0.268-0.654c0.257-0.105,0.547,0.014,0.654,0.267
								c0.069,0.166,1.702,4.122,0.901,9.133C403.241,369.643,403.029,369.818,402.788,369.818z"/>
						</g>
					</g>
				</g>
			</g>
			<g>
				<g>
					<path style="fill:#7098FA;" d="M382.117,311.331l-5.682,0.517c-0.938,0.085-1.767-1.113-1.842-2.662l-0.657-13.46
						c-0.076-1.549,0.63-2.887,1.567-2.972l5.682-0.517c0.938-0.085,1.766,1.113,1.842,2.662l0.657,13.46
						C383.76,309.908,383.055,311.246,382.117,311.331z"/>
					<path style="fill:#392C31;" d="M396.24,313.951l-12.454,0.946c-2.055,0.156-3.802-1.424-3.882-3.511l-0.698-18.131
						c-0.08-2.087,1.535-3.923,3.59-4.079l12.454-0.946c2.055-0.156,3.802,1.424,3.882,3.511l0.698,18.131
						C399.91,311.959,398.295,313.794,396.24,313.951z"/>
					<g>
						<path style="fill:none;" d="M399.83,309.872l-0.698-18.131c-0.08-2.087-1.828-3.667-3.882-3.511l-12.454,0.946
							c-2.055,0.156-3.67,1.991-3.59,4.079l0.216,5.597c0.768-0.378,1.697-0.655,2.832-0.848c5.139-0.877,10.329-1.528,15.503-2.158
							c0.385,2.676,0.644,5.37,0.775,8.071c-3.354,1.154-6.961,1.314-10.508,1.35c-2.678,0.027-5.57,0.185-8.354,0.037l0.234,6.082
							c0.08,2.087,1.828,3.667,3.882,3.511l12.454-0.946C398.295,313.794,399.91,311.959,399.83,309.872z"/>
						<path style="fill:#FA8169;" d="M398.531,303.916c-0.131-2.7-0.39-5.395-0.775-8.071c-5.174,0.63-10.365,1.281-15.503,2.158
							c-1.136,0.194-2.064,0.47-2.832,0.848l0.249,6.451c2.784,0.148,5.676-0.01,8.354-0.037
							C391.571,305.23,395.177,305.07,398.531,303.916z"/>
					</g>
					<g>
						<path style="fill:#7098FA;" d="M396.884,285.369c8.237-0.715,33.696-4.254,44.878-21.064l2.766,59.066
							c0,0-26.236-12.202-44.693-7.204c-2.31,0.626-4.528-1.059-4.613-3.47l-0.865-24.426
							C394.305,286.789,395.429,285.495,396.884,285.369z"/>
						<path style="fill:#392C31;" d="M444.892,329.353L444.892,329.353c-1.368,0.13-2.552-0.902-2.632-2.292l-3.686-64.324
							c-0.08-1.39,0.974-2.634,2.342-2.763l0,0c1.368-0.13,2.552,0.902,2.632,2.292l3.686,64.324
							C447.314,327.98,446.26,329.224,444.892,329.353z"/>
					</g>
					<g>
						<path style="fill:#FFFFFF;" d="M385.792,311.223c-0.511,0.86-1.622,1.143-2.482,0.632c-0.86-0.511-1.143-1.622-0.632-2.482
							c0.511-0.86,1.622-1.143,2.482-0.632C386.02,309.252,386.303,310.363,385.792,311.223z"/>
						<path style="fill:#F5FDFF;" d="M386.009,310.858c-0.459,0.772-1.457,1.026-2.229,0.567c-0.772-0.459-1.026-1.457-0.567-2.229
							c0.459-0.772,1.457-1.026,2.229-0.567C386.213,309.088,386.467,310.086,386.009,310.858z"/>
					</g>
					<g>
						<path style="fill:#FFFFFF;" d="M391.353,311.245c-0.511,0.86-1.622,1.143-2.482,0.632c-0.86-0.511-1.143-1.622-0.632-2.482
							c0.511-0.86,1.622-1.143,2.482-0.632C391.582,309.274,391.864,310.385,391.353,311.245z"/>
						<path style="fill:#FFFFFF;" d="M391.387,310.828c-0.459,0.772-1.457,1.026-2.229,0.567c-0.772-0.459-1.026-1.457-0.567-2.229
							c0.459-0.772,1.457-1.026,2.229-0.567C391.592,309.057,391.846,310.055,391.387,310.828z"/>
					</g>
				</g>
				<path style="fill:#9EB8FA;" d="M435.876,283.46c-7.516,4.106-15.939,6.88-24.502,6.702c-0.394-0.008-0.826-0.037-1.114-0.307
					c-0.267-0.25-0.337-0.64-0.392-1.001c-0.138-0.899-0.277-1.799-0.415-2.698c10.627-0.194,24.725-9.997,25.76-9.668
					C436.437,276.875,435.684,282.36,435.876,283.46z"/>
			</g>
			<g>
				<polygon style="fill:#F9F3E8;" points="386.154,401.951 327.13,539.158 271.806,512.617 349.219,384.232 				"/>
				
					<rect x="343.898" y="391.392" transform="matrix(-0.8957 -0.4446 0.4446 -0.8957 518.9006 913.4917)" style="fill:#E1745F;" width="45.348" height="9.008"/>
			</g>
		</g>
	</g>
	<g>
		<path style="fill:#F9F3E8;" d="M74.781,361.427l168.797-14.008c3.247-0.27,6.127,2.073,6.526,5.306l13.704,111.21
			c1.109,9.001-5.459,17.132-14.492,17.939L86.406,496.438c-10.209,0.913-19.425-6.121-21.239-16.209l-15.141-84.211
			c-0.697-3.881,2.011-7.549,5.925-8.025l15.311-1.86l-2.012-17.982C68.871,364.752,71.373,361.71,74.781,361.427z"/>
		<path style="opacity:0.21;fill:#806B73;" d="M71.263,386.133l-15.311,1.86c-3.914,0.475-6.623,4.144-5.925,8.025l15.14,84.211
			c0.678,3.771,2.392,7.115,4.804,9.777c15.83,1.336,12.81-22.535,12.81-22.535L71.263,386.133z"/>
		<g>
			<g>
				
					<rect x="88.332" y="409.477" transform="matrix(0.9928 -0.12 0.12 0.9928 -51.6529 17.1122)" style="fill:#6369D3;" width="55.82" height="55.82"/>
				
					<rect x="90.49" y="445.312" transform="matrix(0.9928 -0.12 0.12 0.9928 -53.7799 17.5003)" style="fill:#8DD479;" width="55.82" height="19.854"/>
				<polygon style="fill:#BE553F;" points="100.768,441.139 143.067,426.732 144.917,442.034 101.511,447.282 				"/>
				<polygon style="fill:#E1745F;" points="113.521,445.83 88.015,436.449 89.501,448.734 				"/>
				<path style="fill:#EAAD46;" d="M111.055,425.433c0.456,3.773-2.232,7.201-6.005,7.657c-3.773,0.456-7.201-2.233-7.657-6.006
					c-0.456-3.773,2.233-7.201,6.005-7.657C107.171,418.971,110.6,421.66,111.055,425.433z"/>
			</g>
			
				<rect x="146.545" y="403.129" transform="matrix(0.9928 -0.12 0.12 0.9928 -47.4428 22.9971)" style="fill:#806B73;" width="41.315" height="4.488"/>
			
				<rect x="147.773" y="413.286" transform="matrix(0.9928 -0.12 0.12 0.9928 -48.653 23.2179)" style="fill:#806B73;" width="41.315" height="4.488"/>
			
				<rect x="149.001" y="423.442" transform="matrix(0.9928 -0.12 0.12 0.9928 -49.8631 23.4387)" style="fill:#806B73;" width="41.315" height="4.488"/>
			
				<rect x="150.228" y="433.599" transform="matrix(0.9928 -0.12 0.12 0.9928 -51.0732 23.6595)" style="fill:#806B73;" width="41.315" height="4.488"/>
			
				<rect x="151.451" y="443.712" transform="matrix(0.9928 -0.12 0.12 0.9928 -52.2782 23.8794)" style="fill:#806B73;" width="41.315" height="4.488"/>
			
				<rect x="152.679" y="453.869" transform="matrix(0.9928 -0.12 0.12 0.9928 -53.4881 24.1)" style="fill:#806B73;" width="41.315" height="4.488"/>
			
				<rect x="198.559" y="396.841" transform="matrix(0.9928 -0.12 0.12 0.9928 -46.3129 29.1947)" style="fill:#806B73;" width="41.315" height="4.488"/>
			
				<rect x="199.787" y="406.998" transform="matrix(0.9928 -0.12 0.12 0.9928 -47.5224 29.415)" style="fill:#806B73;" width="41.315" height="4.488"/>
			
				<rect x="201.015" y="417.154" transform="matrix(0.9928 -0.12 0.12 0.9928 -48.7324 29.6358)" style="fill:#806B73;" width="41.315" height="4.488"/>
			
				<rect x="202.242" y="427.311" transform="matrix(0.9928 -0.12 0.12 0.9928 -49.9424 29.8565)" style="fill:#806B73;" width="41.315" height="4.488"/>
			
				<rect x="203.465" y="437.424" transform="matrix(0.9928 -0.12 0.12 0.9928 -51.1485 30.0771)" style="fill:#806B73;" width="41.315" height="4.488"/>
			
				<rect x="204.693" y="447.581" transform="matrix(0.9928 -0.12 0.12 0.9928 -52.3585 30.2977)" style="fill:#806B73;" width="41.315" height="4.488"/>
			
				<rect x="154.972" y="472.835" transform="matrix(0.9928 -0.12 0.12 0.9928 -55.749 24.5129)" style="fill:#806B73;" width="41.315" height="4.488"/>
			
				<rect x="93.731" y="480.239" transform="matrix(0.9928 -0.12 0.12 0.9928 -57.0802 17.2164)" style="fill:#806B73;" width="41.315" height="4.488"/>
			
				<rect x="83.294" y="390.468" transform="matrix(0.9928 -0.12 0.12 0.9928 -45.9684 22.1602)" style="fill:#806B73;" width="155.395" height="4.488"/>
			
				<rect x="206.986" y="466.547" transform="matrix(0.9928 -0.12 0.12 0.9928 -54.6172 30.7094)" style="fill:#806B73;" width="41.315" height="4.488"/>
		</g>
		<g>
			<polygon style="fill:#806B73;" points="67.725,440.837 78.82,439.496 78.191,435.051 67.186,436.382 			"/>
			<polygon style="fill:#806B73;" points="68.947,450.95 80.249,449.584 79.619,445.14 68.409,446.495 			"/>
			<polygon style="fill:#806B73;" points="66.497,430.68 77.385,429.364 76.756,424.92 65.958,426.225 			"/>
			<polygon style="fill:#806B73;" points="64.041,410.367 74.516,409.101 73.887,404.656 63.503,405.912 			"/>
			<polygon style="fill:#806B73;" points="81.054,455.271 69.637,456.652 70.175,461.107 81.684,459.716 			"/>
			<polygon style="fill:#806B73;" points="65.269,420.524 75.951,419.232 75.321,414.788 64.73,416.068 			"/>
		</g>
	</g>
	<g>
		<defs>
			<rect id="SVGID_00000163771116373714369900000004143520861768270774_" width="500" height="500"/>
		</defs>
		<clipPath id="SVGID_00000000211617741354175090000004384124745780328595_">
			<use xlink:href="#SVGID_00000163771116373714369900000004143520861768270774_"  style="overflow:visible;"/>
		</clipPath>
		<g style="clip-path:url(#SVGID_00000000211617741354175090000004384124745780328595_);">
			<g>
				<g>
					<g>
						<g>
							<g>
								<g>
									<g>
										<path style="fill:#B96359;" d="M138.546,250.383c0,0-5.868,9.525-14.14,8.266c-6.679-1.02-10.009-9.204-11.045-12.313
											c-0.247-0.745-0.363-1.196-0.363-1.196s-0.471-0.138-1.142-0.426c-1.575-0.671-4.258-2.151-4.56-4.55
											c-0.431-3.42,6.063-2.967,6.063-2.967s-1.856-3.821-0.341-5.423c1.492-1.574,5.584-0.351,5.584-0.351
											s-3.105-4.487-0.703-6.302c3.612-2.729,6.363,3.035,6.622,3.396c-0.146-0.431-6.393-18.609-2.972-18.398
											c2.986,0.184,9.177,15.153,10.81,19.237c0.26,0.647,0.403,1.019,0.403,1.019s0.223-0.059,0.603-0.135
											c1.807-0.366,7.198-1.118,9.018,2.334C144.586,236.745,138.546,250.383,138.546,250.383z"/>
									</g>
								</g>
							</g>
						</g>
					</g>
					<g>
						<g>
							<g>
								<g>
									<g>
										<path style="fill:#392C31;" d="M119.799,240.87c0.975,1.29,1.673,2.782,1.62,3.973c-0.037,0.768-0.374,1.365-0.979,1.725
											c-0.417,0.248-1.005,0.375-1.682,0.417c-1.69,0.107-3.923-0.31-5.396-0.649c-0.249-0.745-0.363-1.196-0.363-1.196
											s-0.474-0.137-1.145-0.426c0.115-0.034,0.24-0.034,0.361,0.001c2.315,0.649,6.417,1.429,7.568,0.743
											c0.148-0.091,0.326-0.251,0.349-0.677c0.058-1.308-1.467-3.701-3.135-4.919c-0.269-0.195-0.347-0.553-0.183-0.838
											c0.162-0.292,0.515-0.407,0.816-0.275c1.465,0.632,5.626,2.047,7.301,1.051c0.243-0.145,0.251-0.275,0.251-0.344
											c0.014-0.309-0.209-0.731-0.566-1.198c-0.727-0.949-2.011-2.076-2.99-2.779c-0.113-0.083-0.191-0.19-0.231-0.312
											c-0.069-0.193-0.045-0.412,0.083-0.588c0.208-0.29,0.611-0.356,0.904-0.148c0.437,0.314,1.965,1.454,3.025,2.746
											c0.385,0.472,0.71,0.965,0.894,1.446c0.12,0.305,0.183,0.605,0.173,0.892c-0.02,0.406-0.188,0.979-0.882,1.395
											C124.109,241.787,121.686,241.4,119.799,240.87z"/>
									</g>
								</g>
							</g>
						</g>
					</g>
					<g>
						<g>
							<g>
								<g>
									<g>
										<path style="fill:#392C31;" d="M128.182,233.344c-0.231,0.129-0.362,0.384-0.323,0.646c0.125,0.832,0.106,1.583-0.1,2.076
											c-0.167,0.389-0.388,0.48-0.561,0.513c-0.282,0.053-0.669-0.002-1.123-0.139c-1.125-0.337-2.662-1.166-4.012-2.01
											c0.039,0.122,0.118,0.229,0.231,0.312c0.979,0.703,2.263,1.831,2.99,2.779c0.145,0.053,0.29,0.1,0.43,0.142
											c0.451,0.133,0.879,0.215,1.255,0.222c0.167,0.002,0.32-0.009,0.467-0.038c0.694-0.131,1.216-0.576,1.511-1.282
											c0.311-0.745,0.347-1.734,0.192-2.775c-0.066-0.441-0.549-0.675-0.938-0.457
											C128.194,233.337,128.188,233.341,128.182,233.344z"/>
									</g>
								</g>
							</g>
						</g>
					</g>
					<g>
						<g>
							<g>
								<g>
									<g>
										<path style="fill:#392C31;" d="M138.821,238.294c-0.155,0.055-2.539,0.867-4.999,1.022
											c-1.362,0.086-2.75-0.031-3.794-0.593c-0.86-0.463-1.419-1.172-1.659-2.107c-0.849-3.319,2.134-5.973,3.99-7.26
											c0.26,0.647,0.403,1.019,0.403,1.019s0.223-0.059,0.603-0.135c-1.57,1.043-4.435,3.366-3.745,6.055
											c0.146,0.579,0.48,1.001,1.019,1.291c2.015,1.086,6.285,0,7.76-0.51c0.336-0.118,0.705,0.059,0.82,0.398
											C139.337,237.809,139.156,238.176,138.821,238.294z"/>
									</g>
								</g>
							</g>
						</g>
					</g>
					<g>
						<g>
							<g>
								<g>
									<g>
										<path style="fill:#392C31;" d="M128.121,253.431c-0.222,0.014-0.445-0.087-0.577-0.285
											c-0.198-0.296-0.119-0.697,0.178-0.895c1.596-1.067,2.52-2.446,2.745-4.097c0.578-4.232-3.45-8.978-3.491-9.025
											c-0.232-0.27-0.201-0.678,0.069-0.91c0.27-0.232,0.678-0.202,0.91,0.069c0.182,0.211,4.447,5.24,3.791,10.041
											c-0.278,2.033-1.39,3.713-3.307,4.995C128.34,253.388,128.231,253.424,128.121,253.431z"/>
									</g>
								</g>
							</g>
						</g>
					</g>
				</g>
				<g>
					<g>
						<g>
							<path style="fill:#7098FA;" d="M219.179,222.115l-10.46,14.428c-1.641,2.443-3.292,4.875-4.953,7.29
								c-1.651,2.423-3.302,4.838-4.97,7.226c-1.674,2.383-3.332,4.763-5.005,7.101c-1.672,2.336-3.363,4.635-5.047,6.855
								c-1.669,2.222-3.361,4.389-4.972,6.288c-0.798,0.942-1.584,1.817-2.229,2.49l-0.432,0.442l-0.176,0.177
								c-0.037,0.04-0.041,0.052-0.06,0.082c-0.062,0.093-0.101,0.157-0.124,0.21c-0.046,0.105-0.021,0.171-0.091,0.261
								c-0.065,0.09-0.252,0.189-0.624,0.25c-0.74,0.124-2.225-0.025-4.007-0.573c-1.784-0.541-3.829-1.453-5.911-2.592
								c-2.083-1.15-4.245-2.491-6.384-3.994c-4.281-3.017-8.557-6.54-12.696-10.317c-4.157-3.766-7.161-6.721-11.083-10.844
								c-3.269,6.549-9.613,10.89-17.399,11.739c3.487,5.309,7.263,10.378,11.347,15.327c4.111,4.925,8.51,9.724,13.556,14.252
								c2.528,2.261,5.199,4.486,8.173,6.562c2.976,2.077,6.212,4.063,9.995,5.761c1.893,0.843,3.926,1.621,6.157,2.228
								c2.228,0.606,4.653,1.063,7.279,1.223c2.623,0.157,5.451,0.011,8.304-0.597c2.85-0.593,5.69-1.653,8.236-3.054
								c1.275-0.698,2.481-1.476,3.601-2.304l0.815-0.624l0.679-0.552c0.235-0.19,0.425-0.357,0.636-0.536
								c0.201-0.174,0.422-0.359,0.606-0.525c1.549-1.371,2.854-2.648,4.092-3.906c2.458-2.508,4.629-4.933,6.743-7.363
								c2.098-2.434,4.091-4.869,6.054-7.302c1.959-2.434,3.879-4.867,5.744-7.326c1.869-2.455,3.719-4.91,5.537-7.378
								c1.808-2.476,3.597-4.956,5.371-7.444c1.758-2.499,3.506-4.999,5.227-7.521l2.565-3.798l1.267-1.919
								c0.428-0.648,0.834-1.271,1.28-1.966L219.179,222.115z"/>
						</g>
					</g>
				</g>
				<g>
					<g>
						<path style="fill:#392C31;" d="M129.097,267.481c-0.352-0.09-0.615-0.408-0.62-0.789c-0.006-0.456,0.358-0.832,0.815-0.838
							c12.059-0.168,15.23-12.444,15.261-12.568c0.11-0.443,0.558-0.714,1.001-0.604c0.003,0.001,0.005,0.001,0.007,0.002
							c0.439,0.113,0.706,0.558,0.597,0.999c-0.034,0.136-3.522,13.639-16.843,13.824
							C129.239,267.508,129.166,267.499,129.097,267.481z"/>
					</g>
				</g>
				<g>
					<g>
						<path style="fill:#392C31;" d="M135.046,266.321c-0.179-0.046-0.343-0.151-0.461-0.312l-5.829-7.944
							c-0.27-0.368-0.191-0.885,0.177-1.155c0.368-0.27,0.886-0.19,1.156,0.177l5.829,7.944c0.27,0.368,0.191,0.885-0.177,1.155
							C135.533,266.339,135.278,266.38,135.046,266.321z"/>
					</g>
				</g>
				<g>
					<g>
						<path style="fill:#392C31;" d="M139.842,256.266c-0.197,0.766-0.977,1.228-1.743,1.032c-0.767-0.197-1.228-0.977-1.032-1.744
							c0.197-0.766,0.977-1.229,1.744-1.032C139.576,254.719,140.038,255.499,139.842,256.266z"/>
					</g>
				</g>
				<g>
					<g>
						<g>
							<path style="fill:#392C31;" d="M184.786,284.456c-0.243-0.062-0.456-0.235-0.559-0.484c-0.02-0.049-2.034-4.879-4.212-7.468
								c-0.294-0.349-0.249-0.871,0.1-1.164c0.349-0.294,0.871-0.249,1.165,0.1c2.344,2.786,4.389,7.692,4.475,7.9
								c0.175,0.422-0.026,0.905-0.447,1.08C185.135,284.49,184.953,284.499,184.786,284.456z"/>
						</g>
					</g>
					<g>
						<g>
							<path style="fill:#392C31;" d="M179.137,283.861c-0.058-0.015-0.114-0.036-0.169-0.064c-0.407-0.206-0.569-0.704-0.364-1.111
								c0.016-0.032,1.629-3.253,1.553-6.009c-0.012-0.457,0.348-0.836,0.804-0.849c0.456-0.013,0.836,0.347,0.849,0.804
								c0.087,3.181-1.658,6.655-1.732,6.802C179.899,283.786,179.503,283.955,179.137,283.861z"/>
						</g>
					</g>
				</g>
			</g>
			<g>
				<g>
					<g>
						<g>
							<g>
								<g>
									<path style="fill:#B96359;" d="M249.039,393.373c-0.09,2.241-0.202,4.429-0.339,6.566c-0.014,0.252-0.032,0.504-0.05,0.753
										c-0.897,13.904-2.66,25.746-5.017,36.496c-0.685,3.128-1.42,6.166-2.198,9.136c-0.173,0.66-0.35,1.323-0.526,1.975v0.004
										c-1.514,5.55-3.168,10.88-4.93,16.145c-0.278,0.84-0.562,1.679-0.847,2.516c-1.993,5.835-4.105,11.626-6.274,17.597
										c-3.553,9.792-7.258,20.059-10.84,31.79c0,0,3.867,44.039-6.415,80.982c-10.285,36.947-30.114,78.182-30.114,78.182
										c-4.685,4.458-8.53,5.882-15.914,7.042l17.944-168.137l0.349-3.269l0.548-5.128l1.589-29.335l0.659-12.239l0.53-9.763
										l0.786-14.523l1.261-23.299L249.039,393.373z"/>
								</g>
							</g>
						</g>
					</g>
					<g>
						<g>
							<path style="fill:#A34A43;" d="M235.979,464.448c-0.278,0.84-0.562,1.679-0.847,2.516
								c-1.993,5.835-4.105,11.626-6.274,17.597c-17.417-2.324-33.051-5.6-42.853-7.874l0.659-12.239H235.979z"/>
						</g>
					</g>
					<g>
						<g>
							<g>
								<g>
									<path style="fill:#392C31;" d="M183.519,514.42c5.318,2.424,12.306,2.568,13.899,2.568h0.314
										c0.859-0.016,1.542-0.722,1.527-1.581c-0.016-0.851-0.707-1.527-1.554-1.527h-0.027c-2.89,0.051-9.63-0.427-13.809-2.731
										L183.519,514.42z"/>
								</g>
							</g>
						</g>
					</g>
					<g>
						<g>
							<g>
								<g>
									<path style="fill:#392C31;" d="M154.416,695.485c3.388-5.464,33.759-34.595,33.759-34.595s6.209,4.866,5.908,10.225
										c-0.286,5.103-0.072,31.961-0.147,34.791h-3.685l-2.076-12.254c0,0-8.396,13.433-14.7,18.033
										c-6.303,4.6-27.605,3.773-32.716,3.092C135.648,714.096,151.028,700.95,154.416,695.485z"/>
								</g>
							</g>
						</g>
						<g>
							<g>
								<g>
									<path style="fill:#B96359;" d="M191.812,647.596l-4.032,11.984c0,0,1.704,3.918,0,9.711
										c-1.704,5.792-8.154,14.985-14.311,21.807c-5.311,5.885-16.696,11.755-20.103,10.222
										c-3.407-1.533,6.474-13.288,9.37-19.422c2.896-6.133,4.077-12.024,5.057-17.195c1.003-5.286,1.635-18.268,1.635-18.268
										L191.812,647.596z"/>
								</g>
							</g>
						</g>
					</g>
				</g>
				<g>
					<g>
						<g>
							<g>
								<g>
									<path style="fill:#B96359;" d="M296.646,391.038c0,0-0.04,21.097-0.833,57.971c-0.101,4.873-0.22,10.023-0.353,15.439
										c-0.021,0.865-0.043,1.741-0.065,2.62c-0.144,5.676-0.303,11.633-0.479,17.853c-0.23,8.235-0.494,16.934-0.793,26.067
										c-0.04,1.168-0.079,2.335-0.119,3.514c-0.086,2.555-0.173,5.143-0.263,7.763l-2.793,150.288l-16.862-14.311
										c0,0-9.579-46.969-16.689-86.961c-6.649-37.408,1.86-55.229,1.86-55.229c-2.97-8.051-5.827-18.203-8.285-29.245
										c-1.344-6.015-2.566-12.296-3.629-18.643c-0.205-1.236-0.407-2.476-0.598-3.716c-0.843-5.398-1.568-10.819-2.137-16.145
										v-0.004c-0.072-0.681-0.144-1.352-0.209-2.029c-0.31-3.074-0.566-6.109-0.764-9.082
										c-0.941-14.152-0.584-26.924,1.658-35.818l3.359-0.678l3.748-0.753L296.646,391.038z"/>
								</g>
							</g>
						</g>
					</g>
					<g>
						<g>
							<path style="fill:#A34A43;" d="M295.46,464.448c-0.021,0.865-0.043,1.741-0.065,2.62c-0.144,5.676-0.303,11.633-0.479,17.853
								c-13.107,2.674-28.568,2.908-43.945,1.885c-1.344-6.015-2.566-12.296-3.629-18.643c-0.205-1.236-0.407-2.476-0.598-3.716
								H295.46z"/>
						</g>
					</g>
					<g>
						<g>
							<g>
								<g>
									<path style="fill:#392C31;" d="M278.448,515.406c-0.016,0.859,0.668,1.565,1.526,1.581h0.315
										c1.573,0,8.425-0.144,13.716-2.486c0.039-1.177,0.078-2.346,0.117-3.512c-4.149,2.44-11.137,2.945-14.093,2.89h-0.027
										C279.155,513.88,278.464,514.555,278.448,515.406z"/>
								</g>
							</g>
						</g>
					</g>
					<g>
						<g>
							<g>
								<g>
									<path style="fill:#392C31;" d="M274.084,658.243c0,0-6.9,2.811-7.155,12.522c-0.255,9.711,0,34.754,0,34.754h3.521
										l1.909-8.832c0,0,1.214,9.599,6.069,15.732c4.855,6.133,15.333,6.389,22.233,5.367c6.9-1.022,1.789-13.8-1.022-20.955
										c-2.811-7.155-8.692-24.277-8.692-24.277L274.084,658.243z"/>
								</g>
							</g>
						</g>
						<g>
							<g>
								<g>
									<path style="fill:#B96359;" d="M275.909,644.356c0,0,0.219,11.842-1.825,13.886c-2.045,2.044-4.855,8.688-2.811,16.866
										c2.044,8.177,3.407,20.103,8.177,25.214c4.77,5.111,17.207,5.281,18.229,1.192c1.022-4.089-6.303-19.251-6.644-27.088
										c-0.341-7.837-1.704-28.962-1.704-28.962L275.909,644.356z"/>
								</g>
							</g>
						</g>
					</g>
				</g>
				<g>
					<g>
						<g>
							<g>
								<g>
									<path style="fill:#E2755E;" d="M306.942,472.16c0,0-97.985,18.124-139.389-12.758c0,0,1.182-3.337,2.649-7.532
										c0.267-0.764,0.544-1.553,0.825-2.36c0.191-0.551,0.386-1.11,0.584-1.672c0.728-2.112,1.46-4.245,2.097-6.137
										c0.71-2.079,1.301-3.874,1.654-5.027c0.184-0.606,0.378-1.24,0.577-1.896c3.6-11.781,9.586-31.443,14.066-46.396v-0.004
										c0.393-1.315,0.775-2.591,1.139-3.824c0.108-0.357,0.213-0.71,0.317-1.06c0.807-2.706,1.625-5.571,2.447-8.527
										c0.58-2.083,1.157-4.213,1.733-6.365c0.436-1.64,0.872-3.29,1.304-4.944c0.195-0.753,0.393-1.507,0.588-2.26
										c2.393-9.262,4.627-18.448,6.357-25.731c0.159-0.659,0.31-1.305,0.458-1.928c1.838-7.781,2.998-12.963,2.998-12.963
										c39.358,9.813,82.452,8.307,82.452,8.307s1.6,5.615,3.636,14.945c0.137,0.616,0.274,1.258,0.414,1.91
										c1.845,8.674,3.964,20.149,5.561,33.127c0.05,0.411,0.101,0.822,0.148,1.236c0.036,0.278,0.068,0.552,0.101,0.829
										c0.148,1.243,0.288,2.497,0.422,3.766c0.299,2.772,0.562,5.6,0.796,8.476v0.004c0.152,1.881,0.321,3.95,0.501,6.155
										c0.241,2.973,0.508,6.191,0.782,9.532c0.126,1.532,0.252,3.089,0.386,4.656c0.818,9.925,1.69,20.369,2.346,28.258
										c0.058,0.674,0.112,1.323,0.162,1.953c0.292,3.47,0.796,11.107,1.214,17.565c0.054,0.847,0.104,1.676,0.159,2.469
										C306.722,468.618,306.942,472.16,306.942,472.16z"/>
								</g>
							</g>
						</g>
					</g>
					<g>
						<g>
							<g>
								<g>
									<path style="fill:#392C31;" d="M215.581,342.48c-0.27-0.27-0.577-0.479-0.903-0.635c-1.209,1.796-2.231,3.704-3.331,5.569
										c1.276,0.938,3.079,0.834,4.234-0.321C216.855,345.819,216.855,343.754,215.581,342.48z"/>
								</g>
							</g>
							<g>
								<g>
									<path style="fill:#392C31;" d="M229.186,349.847c-1.274,1.274-3.339,1.274-4.614,0c-1.274-1.274-1.274-3.34,0-4.613
										c1.274-1.274,3.34-1.274,4.614,0C230.46,346.508,230.46,348.573,229.186,349.847z"/>
								</g>
							</g>
							<g>
								<g>
									<path style="fill:#392C31;" d="M243.272,351.982c-1.274,1.274-3.34,1.274-4.614,0c-1.274-1.274-1.274-3.34,0-4.614
										c1.274-1.274,3.339-1.274,4.614,0C244.546,348.642,244.546,350.708,243.272,351.982z"/>
								</g>
							</g>
							<g>
								<g>
									<path style="fill:#392C31;" d="M257.681,353.47c-1.274,1.274-3.34,1.274-4.613,0c-1.274-1.274-1.274-3.34,0-4.614
										c1.274-1.274,3.339-1.274,4.613,0C258.955,350.13,258.955,352.195,257.681,353.47z"/>
								</g>
							</g>
							<g>
								<g>
									<path style="fill:#392C31;" d="M267.376,349.976c-0.996,1.28-0.908,3.129,0.268,4.305c0.325,0.325,0.703,0.566,1.105,0.726
										C268.082,353.389,267.591,351.711,267.376,349.976z"/>
								</g>
							</g>
						</g>
						<g>
							<g>
								<g>
									<path style="fill:#392C31;" d="M213.662,362.457c-1.299,1.312-3.416,1.322-4.728,0.023
										c-1.312-1.299-1.322-3.416-0.023-4.728c1.299-1.312,3.416-1.322,4.728-0.023
										C214.951,359.029,214.962,361.146,213.662,362.457z"/>
								</g>
							</g>
							<g>
								<g>
									<path style="fill:#392C31;" d="M227.617,365.212c-1.299,1.312-3.416,1.322-4.728,0.023
										c-1.312-1.299-1.322-3.416-0.023-4.728c1.299-1.312,3.416-1.322,4.728-0.023
										C228.906,361.784,228.916,363.9,227.617,365.212z"/>
								</g>
							</g>
							<g>
								<g>
									<path style="fill:#392C31;" d="M242.062,367.33c-1.299,1.312-3.416,1.322-4.727,0.023
										c-1.312-1.299-1.322-3.416-0.023-4.727c1.299-1.312,3.416-1.322,4.728-0.023
										C243.351,363.902,243.361,366.019,242.062,367.33z"/>
								</g>
							</g>
							<g>
								<g>
									<path style="fill:#392C31;" d="M256.835,368.784c-1.299,1.312-3.416,1.322-4.728,0.023
										c-1.312-1.299-1.322-3.416-0.023-4.728c1.299-1.312,3.416-1.322,4.728-0.023
										C258.124,365.355,258.134,367.472,256.835,368.784z"/>
								</g>
							</g>
							<g>
								<g>
									<path style="fill:#392C31;" d="M271.776,369.544c-1.299,1.312-3.416,1.322-4.728,0.023
										c-1.312-1.299-1.322-3.416-0.022-4.728c1.299-1.312,3.416-1.322,4.728-0.023
										C273.065,366.115,273.075,368.232,271.776,369.544z"/>
								</g>
							</g>
						</g>
						<g>
							<g>
								<g>
									<path style="fill:#392C31;" d="M198.102,374.424c-1.132,1.15-2.869,1.333-4.195,0.544c0.58-2.083,1.157-4.213,1.733-6.365
										c0.872-0.007,1.744,0.321,2.414,0.977C199.404,370.907,199.425,373.073,198.102,374.424z"/>
								</g>
							</g>
							<g>
								<g>
									<path style="fill:#392C31;" d="M211.743,377.806c-1.325,1.35-3.492,1.37-4.842,0.046s-1.37-3.492-0.045-4.842
										c1.324-1.35,3.492-1.37,4.842-0.046C213.048,374.288,213.068,376.456,211.743,377.806z"/>
								</g>
							</g>
							<g>
								<g>
									<path style="fill:#392C31;" d="M226.048,380.562c-1.324,1.349-3.492,1.37-4.842,0.045c-1.35-1.324-1.37-3.492-0.046-4.842
										c1.325-1.349,3.492-1.37,4.842-0.045C227.353,377.044,227.373,379.212,226.048,380.562z"/>
								</g>
							</g>
							<g>
								<g>
									<path style="fill:#392C31;" d="M240.852,382.663c-1.324,1.35-3.492,1.37-4.842,0.045c-1.349-1.324-1.37-3.492-0.045-4.842
										c1.324-1.35,3.492-1.37,4.842-0.045C242.156,379.146,242.176,381.314,240.852,382.663z"/>
								</g>
							</g>
							<g>
								<g>
									<path style="fill:#392C31;" d="M255.988,384.082c-1.324,1.349-3.492,1.37-4.842,0.046c-1.35-1.324-1.37-3.492-0.045-4.842
										c1.324-1.349,3.492-1.37,4.842-0.045C257.293,380.565,257.313,382.733,255.988,384.082z"/>
								</g>
							</g>
							<g>
								<g>
									<path style="fill:#392C31;" d="M271.294,384.79c-1.324,1.35-3.492,1.37-4.842,0.046c-1.35-1.324-1.37-3.492-0.046-4.842
										c1.324-1.35,3.492-1.37,4.842-0.046C272.598,381.273,272.619,383.441,271.294,384.79z"/>
								</g>
							</g>
							<g>
								<g>
									<path style="fill:#392C31;" d="M286.604,384.759c-1.324,1.35-3.492,1.37-4.842,0.046c-1.349-1.324-1.37-3.492-0.045-4.842
										c1.324-1.35,3.492-1.37,4.842-0.046C287.908,381.242,287.929,383.41,286.604,384.759z"/>
								</g>
							</g>
							<g>
								<g>
									<path style="fill:#392C31;" d="M300.081,384.897c-1.099,0.256-2.303-0.043-3.168-0.89
										c-1.247-1.222-1.355-3.164-0.324-4.516c0.973,0.324,1.964,0.591,2.97,0.811c0.036,0.278,0.068,0.552,0.101,0.829
										C299.807,382.374,299.947,383.628,300.081,384.897z"/>
								</g>
							</g>
						</g>
						<g>
							<g>
								<g>
									<path style="fill:#392C31;" d="M195.846,389.733c-1.351,1.388-3.571,1.42-4.955,0.069c-0.422-0.407-0.717-0.897-0.887-1.42
										v-0.004c0.393-1.315,0.775-2.591,1.139-3.824c1.359-1.092,3.352-1.024,4.635,0.223
										C197.165,386.129,197.194,388.346,195.846,389.733z"/>
								</g>
							</g>
							<g>
								<g>
									<path style="fill:#392C31;" d="M209.824,393.135c-1.349,1.387-3.568,1.418-4.956,0.068s-1.418-3.568-0.068-4.956
										c1.35-1.387,3.569-1.418,4.956-0.068C211.144,389.529,211.174,391.748,209.824,393.135z"/>
								</g>
							</g>
							<g>
								<g>
									<path style="fill:#392C31;" d="M224.48,395.892c-1.35,1.388-3.568,1.418-4.956,0.068s-1.418-3.568-0.068-4.956
										s3.569-1.418,4.956-0.068C225.799,392.286,225.829,394.505,224.48,395.892z"/>
								</g>
							</g>
							<g>
								<g>
									<path style="fill:#392C31;" d="M239.642,397.977c-1.35,1.387-3.569,1.418-4.956,0.068s-1.418-3.568-0.068-4.956
										s3.568-1.418,4.955-0.068C240.961,394.371,240.992,396.59,239.642,397.977z"/>
								</g>
							</g>
							<g>
								<g>
									<path style="fill:#392C31;" d="M255.142,399.362c-1.35,1.387-3.568,1.418-4.956,0.068c-1.387-1.35-1.418-3.568-0.068-4.956
										c1.35-1.387,3.569-1.418,4.956-0.068C256.461,395.756,256.492,397.975,255.142,399.362z"/>
								</g>
							</g>
							<g>
								<g>
									<path style="fill:#392C31;" d="M270.812,400.018c-1.35,1.387-3.568,1.418-4.956,0.068s-1.418-3.568-0.068-4.956
										c1.35-1.387,3.568-1.418,4.956-0.068C272.132,396.412,272.162,398.631,270.812,400.018z"/>
								</g>
							</g>
							<g>
								<g>
									<path style="fill:#392C31;" d="M286.484,399.918c-1.35,1.387-3.568,1.418-4.956,0.068c-1.387-1.35-1.418-3.568-0.068-4.956
										s3.568-1.418,4.956-0.068C287.803,396.312,287.833,398.531,286.484,399.918z"/>
								</g>
							</g>
							<g>
								<g>
									<path style="fill:#392C31;" d="M301.378,399.532c-1.341,0.868-3.153,0.732-4.346-0.433
										c-1.388-1.348-1.416-3.568-0.068-4.955c1.049-1.074,2.616-1.333,3.914-0.767
										C301.029,395.258,301.198,397.327,301.378,399.532z"/>
								</g>
							</g>
						</g>
						<g>
							<g>
								<g>
									<path style="fill:#392C31;" d="M193.589,405.045c-1.375,1.425-3.645,1.466-5.07,0.091c-1.425-1.375-1.466-3.645-0.091-5.07
										c1.375-1.425,3.645-1.466,5.07-0.091C194.923,401.35,194.964,403.62,193.589,405.045z"/>
								</g>
							</g>
							<g>
								<g>
									<path style="fill:#392C31;" d="M207.906,408.465c-1.375,1.425-3.645,1.466-5.07,0.091c-1.425-1.375-1.466-3.645-0.091-5.07
										c1.375-1.425,3.645-1.466,5.07-0.091C209.24,404.77,209.281,407.039,207.906,408.465z"/>
								</g>
							</g>
							<g>
								<g>
									<path style="fill:#392C31;" d="M222.911,411.223c-1.375,1.425-3.645,1.466-5.07,0.091c-1.425-1.375-1.466-3.645-0.091-5.07
										c1.375-1.425,3.645-1.466,5.07-0.091C224.245,407.528,224.286,409.797,222.911,411.223z"/>
								</g>
							</g>
							<g>
								<g>
									<path style="fill:#392C31;" d="M238.432,413.291c-1.375,1.425-3.645,1.466-5.07,0.091c-1.425-1.375-1.466-3.645-0.091-5.07
										c1.375-1.425,3.645-1.466,5.07-0.091C239.766,409.596,239.807,411.866,238.432,413.291z"/>
								</g>
							</g>
							<g>
								<g>
									<path style="fill:#392C31;" d="M254.296,414.642c-1.375,1.425-3.645,1.466-5.07,0.091c-1.425-1.375-1.466-3.645-0.091-5.07
										c1.375-1.425,3.645-1.466,5.07-0.091C255.63,410.947,255.671,413.217,254.296,414.642z"/>
								</g>
							</g>
							<g>
								<g>
									<path style="fill:#392C31;" d="M270.331,415.246c-1.375,1.425-3.645,1.466-5.07,0.091c-1.425-1.375-1.466-3.645-0.091-5.07
										c1.375-1.425,3.645-1.466,5.07-0.091C271.665,411.551,271.705,413.821,270.331,415.246z"/>
								</g>
							</g>
							<g>
								<g>
									<path style="fill:#392C31;" d="M286.363,415.077c-1.375,1.425-3.645,1.466-5.07,0.091c-1.425-1.375-1.466-3.645-0.091-5.07
										c1.375-1.425,3.645-1.466,5.07-0.091C287.697,411.381,287.738,413.651,286.363,415.077z"/>
								</g>
							</g>
							<g>
								<g>
									<path style="fill:#392C31;" d="M302.546,413.72c-0.097,0.133-0.206,0.263-0.325,0.386c-1.377,1.423-3.643,1.463-5.07,0.09
										c-1.424-1.377-1.467-3.647-0.09-5.07c1.373-1.424,3.644-1.467,5.071-0.09c0.011,0.011,0.018,0.018,0.029,0.029
										C302.286,410.596,302.412,412.153,302.546,413.72z"/>
								</g>
							</g>
						</g>
						<g>
							<g>
								<g>
									<path style="fill:#392C31;" d="M191.333,420.341c-1.4,1.463-3.721,1.514-5.184,0.114c-1.463-1.4-1.514-3.721-0.114-5.184
										c1.4-1.463,3.721-1.514,5.184-0.114C192.682,416.557,192.734,418.878,191.333,420.341z"/>
								</g>
							</g>
							<g>
								<g>
									<path style="fill:#392C31;" d="M205.987,423.779c-1.4,1.463-3.721,1.514-5.184,0.114c-1.463-1.4-1.514-3.721-0.114-5.184
										c1.4-1.463,3.721-1.514,5.184-0.114C207.336,419.995,207.387,422.316,205.987,423.779z"/>
								</g>
							</g>
							<g>
								<g>
									<path style="fill:#392C31;" d="M221.342,426.538c-1.4,1.463-3.721,1.514-5.184,0.114c-1.463-1.4-1.514-3.721-0.114-5.184
										c1.4-1.463,3.721-1.514,5.184-0.114C222.691,422.754,222.742,425.075,221.342,426.538z"/>
								</g>
							</g>
							<g>
								<g>
									<path style="fill:#392C31;" d="M237.222,428.59c-1.4,1.463-3.721,1.514-5.184,0.114c-1.463-1.4-1.514-3.721-0.114-5.184
										c1.4-1.463,3.721-1.514,5.184-0.114C238.571,424.806,238.622,427.127,237.222,428.59z"/>
								</g>
							</g>
							<g>
								<g>
									<path style="fill:#392C31;" d="M253.449,429.906c-1.4,1.463-3.721,1.514-5.184,0.113c-1.463-1.4-1.514-3.721-0.114-5.184
										c1.4-1.463,3.721-1.514,5.184-0.113C254.799,426.122,254.85,428.443,253.449,429.906z"/>
								</g>
							</g>
							<g>
								<g>
									<path style="fill:#392C31;" d="M269.849,430.459c-1.4,1.463-3.721,1.514-5.184,0.113c-1.463-1.4-1.514-3.721-0.114-5.184
										c1.4-1.463,3.721-1.514,5.184-0.113C271.198,426.675,271.249,428.996,269.849,430.459z"/>
								</g>
							</g>
							<g>
								<g>
									<path style="fill:#392C31;" d="M286.243,430.22c-1.4,1.463-3.721,1.514-5.184,0.114c-1.463-1.4-1.514-3.721-0.114-5.184
										c1.4-1.463,3.721-1.514,5.184-0.114C287.592,426.436,287.643,428.757,286.243,430.22z"/>
								</g>
							</g>
							<g>
								<g>
									<path style="fill:#392C31;" d="M302.454,429.161c-1.4,1.463-3.721,1.514-5.184,0.114c-1.463-1.4-1.514-3.721-0.114-5.184
										c1.4-1.463,3.721-1.514,5.184-0.114C303.804,425.377,303.854,427.698,302.454,429.161z"/>
								</g>
							</g>
						</g>
						<g>
							<g>
								<g>
									<path style="fill:#392C31;" d="M189.077,435.659c-1.425,1.501-3.797,1.562-5.298,0.136
										c-1.501-1.425-1.562-3.797-0.136-5.298c1.425-1.501,3.798-1.562,5.298-0.136
										C190.442,431.786,190.503,434.158,189.077,435.659z"/>
								</g>
							</g>
							<g>
								<g>
									<path style="fill:#392C31;" d="M204.068,439.116c-1.425,1.501-3.797,1.562-5.298,0.136
										c-1.501-1.425-1.562-3.797-0.136-5.298c1.425-1.501,3.797-1.562,5.298-0.137
										C205.432,435.243,205.493,437.615,204.068,439.116z"/>
								</g>
							</g>
							<g>
								<g>
									<path style="fill:#392C31;" d="M219.773,441.876c-1.425,1.501-3.797,1.562-5.298,0.136
										c-1.501-1.425-1.562-3.797-0.136-5.298c1.425-1.501,3.797-1.562,5.298-0.136
										C221.138,438.003,221.199,440.375,219.773,441.876z"/>
								</g>
							</g>
							<g>
								<g>
									<path style="fill:#392C31;" d="M236.012,443.911c-1.425,1.501-3.797,1.562-5.298,0.136
										c-1.501-1.425-1.562-3.797-0.136-5.298c1.425-1.501,3.797-1.562,5.298-0.136
										C237.376,440.038,237.437,442.41,236.012,443.911z"/>
								</g>
							</g>
							<g>
								<g>
									<path style="fill:#392C31;" d="M252.603,445.193c-1.425,1.501-3.797,1.562-5.298,0.136
										c-1.501-1.425-1.562-3.797-0.136-5.298c1.425-1.501,3.797-1.562,5.298-0.136
										C253.968,441.32,254.029,443.693,252.603,445.193z"/>
								</g>
							</g>
							<g>
								<g>
									<path style="fill:#392C31;" d="M269.367,445.694c-1.425,1.501-3.797,1.562-5.298,0.136
										c-1.501-1.425-1.562-3.797-0.136-5.298c1.425-1.501,3.797-1.562,5.298-0.136
										C270.731,441.822,270.792,444.194,269.367,445.694z"/>
								</g>
							</g>
							<g>
								<g>
									<path style="fill:#392C31;" d="M286.122,445.386c-1.426,1.5-3.798,1.562-5.298,0.136c-1.501-1.425-1.562-3.797-0.137-5.298
										c1.426-1.501,3.797-1.562,5.298-0.136C287.486,441.513,287.547,443.885,286.122,445.386z"/>
								</g>
							</g>
							<g>
								<g>
									<path style="fill:#392C31;" d="M302.688,444.241c-1.425,1.501-3.797,1.562-5.298,0.137
										c-1.501-1.425-1.562-3.798-0.136-5.298c1.425-1.501,3.797-1.562,5.298-0.136
										C304.052,440.368,304.113,442.74,302.688,444.241z"/>
								</g>
							</g>
						</g>
						<g>
							<g>
								<g>
									<path style="fill:#392C31;" d="M173.521,446.739c-0.537,0.57-1.204,0.937-1.91,1.099c0.728-2.112,1.46-4.245,2.097-6.137
										C174.901,443.164,174.854,445.326,173.521,446.739z"/>
								</g>
							</g>
							<g>
								<g>
									<path style="fill:#392C31;" d="M186.822,450.977c-1.451,1.538-3.874,1.61-5.412,0.159c-1.538-1.451-1.61-3.874-0.159-5.412
										c1.451-1.538,3.874-1.61,5.412-0.159C188.201,447.015,188.272,449.439,186.822,450.977z"/>
								</g>
							</g>
							<g>
								<g>
									<path style="fill:#392C31;" d="M202.149,454.453c-1.451,1.538-3.874,1.61-5.412,0.159c-1.538-1.451-1.61-3.874-0.159-5.412
										c1.451-1.539,3.874-1.61,5.412-0.159C203.529,450.491,203.6,452.914,202.149,454.453z"/>
								</g>
							</g>
							<g>
								<g>
									<path style="fill:#392C31;" d="M218.205,457.214c-1.451,1.538-3.874,1.61-5.412,0.159c-1.538-1.45-1.61-3.873-0.159-5.412
										c1.451-1.538,3.874-1.61,5.412-0.159C219.584,453.253,219.655,455.676,218.205,457.214z"/>
								</g>
							</g>
							<g>
								<g>
									<path style="fill:#392C31;" d="M234.802,459.233c-1.451,1.538-3.874,1.61-5.412,0.159c-1.538-1.451-1.61-3.874-0.159-5.412
										c1.451-1.538,3.874-1.61,5.412-0.159C236.181,455.271,236.252,457.694,234.802,459.233z"/>
								</g>
							</g>
							<g>
								<g>
									<path style="fill:#392C31;" d="M251.757,460.48c-1.451,1.538-3.874,1.61-5.412,0.159c-1.538-1.451-1.61-3.874-0.159-5.412
										c1.451-1.538,3.874-1.61,5.412-0.159C253.136,456.519,253.207,458.942,251.757,460.48z"/>
								</g>
							</g>
							<g>
								<g>
									<path style="fill:#392C31;" d="M268.885,460.93c-1.451,1.538-3.874,1.61-5.412,0.159c-1.538-1.451-1.61-3.874-0.159-5.412
										c1.451-1.538,3.874-1.61,5.412-0.159C270.264,456.968,270.336,459.391,268.885,460.93z"/>
								</g>
							</g>
							<g>
								<g>
									<path style="fill:#392C31;" d="M286.001,460.552c-1.451,1.539-3.874,1.61-5.412,0.159c-1.538-1.451-1.61-3.874-0.159-5.412
										c1.451-1.538,3.874-1.61,5.412-0.159C287.381,456.591,287.452,459.014,286.001,460.552z"/>
								</g>
							</g>
							<g>
								<g>
									<path style="fill:#392C31;" d="M302.921,459.32c-1.451,1.538-3.874,1.61-5.412,0.159c-1.538-1.451-1.61-3.874-0.159-5.412
										c1.451-1.538,3.874-1.61,5.412-0.159C304.301,455.359,304.372,457.782,302.921,459.32z"/>
								</g>
							</g>
						</g>
					</g>
					<g>
						<g>
							<g>
								<g>
									<path style="fill:#392C31;" d="M306.427,463.965c-10.783,1.539-23.706,2.93-37.689,3.488
										c-7.146,0.288-14.113,0.342-20.888,0.169c-14.549-0.371-28.218-1.795-40.832-4.26
										c-13.496-2.642-25.804-6.487-36.817-11.493c0.267-0.764,0.544-1.553,0.825-2.36c31.696,14.419,69.234,16.617,97.56,15.485
										c13.997-0.562,26.924-1.957,37.682-3.499C306.322,462.344,306.373,463.172,306.427,463.965z"/>
								</g>
							</g>
						</g>
					</g>
					<g>
						<g>
							<g>
								<g>
									<g>
										<path style="fill:#392C31;" d="M265.504,345.003c0.035,0.633,0.086,1.282,0.155,1.938
											c0.474,4.638,1.783,9.765,4.63,14.718c5.477,9.529,15.355,16.078,29.37,19.473c-0.082-0.695-0.163-1.383-0.249-2.066
											c-13.102-3.31-22.332-9.486-27.44-18.374c-2.63-4.576-3.861-9.369-4.323-13.735c-0.07-0.656-0.124-1.305-0.163-1.938
											c-0.466-7.905,1.406-13.992,1.437-14.089c0.163-0.509-0.12-1.057-0.633-1.216c-0.513-0.163-1.056,0.12-1.22,0.633
											C266.937,330.759,265.041,336.935,265.504,345.003z"/>
									</g>
								</g>
							</g>
						</g>
						<g>
							<g>
								<g>
									<g>
										<path style="fill:#392C31;" d="M203.889,335.669c3.422,1.616,7.05,3.007,10.795,4.207
											c0.618,0.198,1.243,0.392,1.869,0.579c15.002,4.502,31.689,6.044,45.145,6.413c1.336,0.035,2.657,0.058,3.962,0.074
											c0.668,0.012,1.332,0.015,1.989,0.015c0.497,0.008,0.991,0.008,1.48,0.008c9.894,0,18.603-0.521,24.72-1.026
											c-0.14-0.653-0.276-1.294-0.412-1.911c-6.398,0.52-15.577,1.053-25.952,0.991c-0.656,0-1.317-0.008-1.981-0.016
											c-1.247-0.016-2.509-0.043-3.783-0.078c-13.292-0.369-29.766-1.884-44.524-6.301h-0.004
											c-0.625-0.187-1.243-0.381-1.861-0.579c-3.822-1.22-7.513-2.645-10.985-4.308
											C204.199,334.364,204.048,335.009,203.889,335.669z"/>
									</g>
								</g>
							</g>
						</g>
						<g>
							<g>
								<g>
									<g>
										<path style="fill:#392C31;" d="M196.947,363.66c6.402-2.191,11.929-7.478,16.249-15.631
											c1.379-2.606,2.486-5.213,3.356-7.575c0.229-0.629,0.443-1.239,0.641-1.83h0.004c1.465-4.354,2.071-7.536,2.109-7.749
											c0.097-0.528-0.249-1.033-0.777-1.134c-0.524-0.097-1.033,0.252-1.13,0.777c-0.008,0.05-0.61,3.212-2.066,7.528
											c-0.198,0.59-0.415,1.201-0.649,1.83c-0.843,2.288-1.907,4.797-3.224,7.283c-3.845,7.249-8.507,12.011-13.926,14.24
											C197.339,362.153,197.141,362.907,196.947,363.66z"/>
									</g>
								</g>
							</g>
						</g>
					</g>
				</g>
			</g>
			<g>
				<g>
					<g>
						<g>
							<path style="fill:#7098FA;" d="M201.553,282.28c0.029,0.088,0.044,0.161,0.073,0.249c0.279,0.954,0.616,1.878,1.013,2.788
								c2.318,5.444,6.324,10.051,7.923,11.768c0.44,0.484,0.704,0.733,0.704,0.733c0,0.029-0.015,0.059-0.015,0.103
								c-0.029,0.279-0.059,0.557-0.088,0.866c-0.117,1.174-0.293,2.582-0.616,4.138c-3.815,17.857-3.565,18.576-5.106,26.162
								c43.961,13.72,85.823,6.603,85.823,6.603c-1.262-24.137-2.729-14.541-0.103-32.046c1.262-8.452,4.666-21.129,9.215-33.763
								c0.176-0.499,0.352-0.998,0.543-1.497c1.365-3.712,2.817-7.41,4.343-10.961c6.676-15.554,7.747-33.059-8.29-38.414
								c-3.8-1.262-8.32-2.362-12.516-3.228c-1.13-0.235-2.245-0.455-3.302-0.66c-5.913-1.115-10.535-1.746-10.535-1.746
								l-28.349,0.352c-2.788,0.323-5.297,0.675-7.557,1.101c-1.981,0.352-3.771,0.763-5.385,1.218
								c-14.438,4.021-14.967,11.621-17.564,25.326c-0.748,3.903-1.805,7.747-2.964,11.445c-0.382,1.159-0.763,2.304-1.144,3.448
								C203.989,267.153,199.954,276.514,201.553,282.28z"/>
						</g>
						<g>
							<path style="fill:#392C31;" d="M207.027,320.918l-1.738,8.299c0,0,43.51,14.953,87.159,6.735l-1.416-7.701
								C291.032,328.251,256.323,335.093,207.027,320.918z"/>
						</g>
					</g>
				</g>
				<g>
					<g>
						<path style="fill:#B96359;" d="M242.208,216.338l-2.716,25.08c10.345-2.01,31.696-16.209,31.82-27.393L242.208,216.338z"/>
					</g>
				</g>
				<g>
					<g>
						<g>
							<path style="fill:#392C31;" d="M211.267,297.819c0,0.029-0.015,0.059-0.015,0.103c-0.029,0.279-0.059,0.557-0.088,0.866
								c5.18,1.174,11.841,1.321,19.677-0.205c15.451-3.023,28.085,4.109,28.202,4.182c0.117,0.073,0.264,0.103,0.396,0.103
								c0.264,0,0.528-0.147,0.66-0.396c0.22-0.367,0.088-0.836-0.279-1.057c-0.528-0.308-13.25-7.483-29.287-4.358
								c-8.129,1.585-14.908,1.335-19.97,0.03C211.003,297.57,211.267,297.819,211.267,297.819z"/>
						</g>
					</g>
				</g>
				<g>
					<g>
						<g>
							<path style="fill:#392C31;" d="M235.349,258.194c9.461,0,28.764-13.549,29.581-14.126c0.35-0.247,0.434-0.732,0.187-1.083
								c-0.247-0.35-0.732-0.434-1.083-0.187c-0.196,0.138-19.715,13.842-28.685,13.842c-8.581,0-10.484-9.375-10.502-9.469
								c-0.081-0.421-0.487-0.699-0.91-0.616c-0.421,0.081-0.697,0.488-0.616,0.91C223.342,247.571,225.499,258.194,235.349,258.194
								z"/>
						</g>
						<g>
							<g>
								<g>
									<path style="fill:#F9F3E8;" d="M236.193,312.168l-16.065-2.387c-1.249-0.186-2.111-1.349-1.925-2.597l3.916-26.355
										c0.186-1.249,1.348-2.111,2.597-1.925l16.065,2.387c1.249,0.186,2.111,1.348,1.925,2.597l-3.916,26.355
										C238.605,311.492,237.442,312.354,236.193,312.168z"/>
								</g>
								<g>
									<path style="fill:#E2755E;" d="M220.13,307.496l3.924-26.406c0.025-0.169,0.182-0.285,0.351-0.26l16.116,2.395
										c0.169,0.025,0.285,0.182,0.26,0.351l-3.924,26.406c-0.025,0.169-0.182,0.285-0.351,0.26l-16.116-2.395
										C220.221,307.822,220.105,307.665,220.13,307.496z"/>
								</g>
								<g>
									<g>
										<g>
											<g>
												<path style="fill:#F9F3E8;" d="M232.966,281.955c-2.618,0-4.748-2.13-4.748-4.748c0-2.618,2.13-4.748,4.748-4.748
													c2.618,0,4.748,2.13,4.748,4.748C237.715,279.825,235.585,281.955,232.966,281.955z M232.966,275.19
													c-1.112,0-2.016,0.905-2.016,2.016c0,1.112,0.904,2.017,2.016,2.017c1.112,0,2.017-0.905,2.017-2.017
													C234.983,276.095,234.078,275.19,232.966,275.19z"/>
											</g>
										</g>
									</g>
								</g>
							</g>
							<g>
								<path style="fill:#F9F3E8;" d="M233.537,276.822c-0.173,0-0.346-0.033-0.51-0.099c-0.362-0.146-0.644-0.439-0.776-0.806
									c-8.215-22.905,2.004-60.502,2.443-62.091c0.201-0.728,0.955-1.153,1.68-0.953c0.727,0.201,1.154,0.953,0.953,1.68
									c-0.103,0.372-9.936,36.557-3.043,58.828c4.711-3.238,21.214-16.811,41.825-59.077c0.331-0.678,1.148-0.96,1.826-0.629
									c0.678,0.33,0.96,1.148,0.629,1.826c-24.884,51.029-43.633,60.787-44.42,61.178
									C233.954,276.774,233.746,276.822,233.537,276.822z"/>
							</g>
						</g>
					</g>
				</g>
			</g>
			<g>
				<g>
					<g>
						<g>
							<g>
								<path style="fill:#392C31;" d="M237.49,206.346c0,0-14.651,2.946-15.27-9.391c-0.268-5.34-0.988-4.505-5.657-9.007
									c-4.669-4.502-4.669-6.336-3.669-10.505c1-4.169,5.205-5.601,3.127-9.454c-2.737-5.074-1.898-13.747,4.05-17.128
									c5.75-3.268,6.397-3.225,6.397-6.576c0-4.377,4.545-11.431,13.922-10.698c8.066,0.63,6.813-3.295,12.529-5.043
									c10.647-3.256,15.806,5.965,19.475,6.299c3.668,0.334,10.016,0.396,13.238,5.271c3.996,6.047,0.466,10.981,5.468,11.481
									c5.003,0.501,10.005,4.836,9.838,9.338c-0.167,4.502-2.835,8.338-1.001,10.339c1.834,2.001,2.545,13.852-4.857,16.12
									c-10.115,3.099,0,18.074-18.603,17.796C259.758,204.94,237.49,206.346,237.49,206.346z"/>
							</g>
						</g>
					</g>
					<g>
						<g>
							<g>
								<g>
									<g>
										<g>
											<g>
												<path style="fill:#392C31;" d="M232.683,177.627c0,0-4.171-4.928-6.529,0c-2.358,4.928-0.544,14.902,5.803,13.27
													L232.683,177.627z"/>
											</g>
										</g>
									</g>
								</g>
							</g>
						</g>
					</g>
					<g>
						<g>
							<g>
								<g>
									<g>
										<g>
											<g>
												<path style="fill:#7098FA;" d="M222.566,188.717c0.478,0.686,1.036,1.315,1.671,1.867
													c2.421,2.104,5.984,3.09,10.814,1.786c0,0,7.144-5.948,1.827-20.468c0,0-7.05-3.656-12.35-0.087
													c-0.584,0.39-1.149,0.872-1.678,1.457c-0.326,0.355-0.638,0.752-0.933,1.188
													C219.53,177.974,219.558,184.439,222.566,188.717z"/>
											</g>
										</g>
									</g>
								</g>
							</g>
						</g>
						<g>
							<g>
								<g>
									<g>
										<g>
											<g>
												<g>
													<path style="fill:#6369D3;" d="M222.566,188.717c0.478,0.686,1.036,1.315,1.671,1.867
														c-2.026-8.698-0.522-15.891,0.291-18.769c-0.584,0.39-1.149,0.872-1.678,1.457
														C222.113,176.567,221.387,182.098,222.566,188.717z"/>
												</g>
											</g>
										</g>
									</g>
								</g>
							</g>
						</g>
					</g>
					<g>
						<g>
							<g>
								<g>
									<g>
										<g>
											<g>
												<g>
													<path style="fill:#B96359;" d="M242.762,202.919l-0.554,13.42c0,0,7.718,11.905,29.104-2.313
														c-4.051-4.523-4.204-13.127-2.567-18.339c0,0-1.574,0.559-4.128,2.075c-0.499,0.297-1.099,0.485-1.704,0.74
														C257.569,200.745,249.529,203.443,242.762,202.919z"/>
												</g>
											</g>
										</g>
									</g>
								</g>
							</g>
						</g>
						<g>
							<g>
								<g>
									<g>
										<g>
											<g>
												<g>
													<path style="fill:#A34A43;" d="M242.762,202.919l-0.262,6.362c5.813-1.294,16.269-4.465,22.118-11.519
														c-0.53,0.237-1.099,0.485-1.704,0.74C257.569,200.745,249.529,203.443,242.762,202.919z"/>
												</g>
											</g>
										</g>
									</g>
								</g>
							</g>
						</g>
					</g>
					<g>
						<g>
							<g>
								<g>
									<g>
										<g>
											<g>
												<path style="fill:#B96359;" d="M269.372,192.573c-0.187,1.038-0.398,2.088-0.632,3.146c0,0-0.008,0.004-0.02,0.012
													c-0.816,0.457-26.16,14.553-37.579,2.744c-2.256-2.338-2.904-7.485-3.052-16.879c-0.019-1.253-0.031-2.58-0.035-3.985
													c-0.004-1.296-0.004-2.658,0-4.09c0.039-11.938,4.117-20.317,10.596-22.315c4.297-1.323,11.443-4.828,19.416-1.924
													c7.688,2.806,12.555,10.416,12.129,18.592C271.089,175.628,270.988,183.788,269.372,192.573z"/>
											</g>
										</g>
									</g>
								</g>
							</g>
						</g>
					</g>
					<g>
						<g>
							<g>
								<g>
									<g>
										<g>
											<g>
												<path style="fill:#392C31;" d="M235.593,162.663c0,0,2.37,0.234,1.537,2.406c-0.832,2.172-5.586-0.221-8.988,3.78
													C228.143,168.849,226.696,163.639,235.593,162.663z"/>
											</g>
										</g>
									</g>
								</g>
							</g>
						</g>
					</g>
					<g>
						<g>
							<g>
								<g>
									<g>
										<g>
											<g>
												<path style="fill:#392C31;" d="M246.331,162.663c0,0-2.369,0.234-1.537,2.406c0.832,2.172,5.586-0.221,8.988,3.78
													C253.781,168.849,255.228,163.639,246.331,162.663z"/>
											</g>
										</g>
									</g>
								</g>
							</g>
						</g>
					</g>
					<g>
						<g>
							<g>
								<g>
									<g>
										<g>
											<g>
												<g>
													<path style="fill:#A34A43;" d="M247.093,179.602c0,1.106,2.277,2.002,5.085,2.002c2.809,0,5.085-0.896,5.085-2.002
														c0-1.105-2.277-2.001-5.085-2.001C249.369,177.601,247.093,178.497,247.093,179.602z"/>
												</g>
											</g>
										</g>
									</g>
								</g>
							</g>
						</g>
					</g>
					<g>
						<g>
							<g>
								<g>
									<g>
										<g>
											<g>
												<g>
													<path style="fill:#A34A43;" d="M232.683,179.6c0,1.042-2.018,1.901-4.594,1.994c-0.019-1.253-0.031-2.58-0.035-3.985
														C230.646,177.696,232.683,178.558,232.683,179.6z"/>
												</g>
											</g>
										</g>
									</g>
								</g>
							</g>
						</g>
					</g>
					<g>
						<g>
							<g>
								<g>
									<g>
										<g>
											<g>
												<g>
													<path style="fill:#392C31;" d="M246.166,173.518c0,1.518,0.689,2.749,1.538,2.749c0.849,0,1.538-1.231,1.538-2.749
														c0-1.518-0.689-2.749-1.538-2.749C246.855,170.769,246.166,172,246.166,173.518z"/>
												</g>
											</g>
										</g>
									</g>
								</g>
							</g>
						</g>
						<g>
							<g>
								<g>
									<g>
										<g>
											<g>
												<g>
													<path style="fill:#392C31;" d="M231.145,173.518c0,1.518,0.689,2.749,1.538,2.749c0.85,0,1.538-1.231,1.538-2.749
														c0-1.518-0.689-2.749-1.538-2.749C231.833,170.769,231.145,172,231.145,173.518z"/>
												</g>
											</g>
										</g>
									</g>
								</g>
							</g>
						</g>
						<g>
							<g>
								<g>
									<g>
										<g>
											<g>
												<g>
													<path style="fill:#392C31;" d="M238.463,188.003c-1.752,0-3.602-0.565-5.279-2.204
														c-0.247-0.241-0.251-0.637-0.01-0.883c0.242-0.247,0.637-0.251,0.883-0.01c4.568,4.465,10.654-0.437,10.911-0.648
														c0.266-0.218,0.66-0.18,0.879,0.086c0.219,0.266,0.181,0.659-0.085,0.879
														C245.713,185.262,242.323,188.003,238.463,188.003z"/>
												</g>
											</g>
										</g>
									</g>
								</g>
							</g>
						</g>
						<g>
							<g>
								<g>
									<g>
										<g>
											<g>
												<g>
													<path style="fill:#392C31;" d="M237.911,179.309c-0.728,0-1.22-0.122-1.262-0.133c-0.169-0.043-0.313-0.156-0.395-0.31
														c-0.083-0.154-0.097-0.336-0.039-0.501l2.311-6.622c0.114-0.326,0.47-0.497,0.796-0.384
														c0.326,0.114,0.497,0.47,0.384,0.796l-2.058,5.896c0.627,0.031,1.599-0.035,2.558-0.551
														c0.304-0.163,0.683-0.049,0.846,0.254c0.163,0.304,0.05,0.683-0.254,0.846
														C239.742,179.168,238.691,179.309,237.911,179.309z"/>
												</g>
											</g>
										</g>
									</g>
								</g>
							</g>
						</g>
					</g>
					<g>
						<g>
							<g>
								<g>
									<g>
										<g>
											<g>
												<path style="fill:#B96359;" d="M266.56,179.026c0,0,6.071-8.154,10.518-1.746c3.665,5.28-3.264,19.042-10.518,14.326
													V179.026z"/>
											</g>
										</g>
									</g>
								</g>
							</g>
						</g>
					</g>
					<g>
						<g>
							<g>
								<path style="fill:#F9F3E8;" d="M272.852,188.841c0,0.851-0.689,1.54-1.54,1.54c-0.851,0-1.54-0.69-1.54-1.54
									s0.689-1.54,1.54-1.54C272.163,187.3,272.852,187.99,272.852,188.841z"/>
							</g>
						</g>
					</g>
					<g>
						<g>
							<g>
								<g>
									<g>
										<g>
											<g>
												<path style="fill:#392C31;" d="M267.39,189.151c-0.023,0-0.046-0.001-0.068-0.004c-0.343-0.038-0.591-0.346-0.553-0.689
													c0.759-6.935,6.595-9.337,6.843-9.436c0.321-0.128,0.684,0.029,0.812,0.349c0.128,0.32-0.028,0.683-0.348,0.811l0,0
													c-0.22,0.089-5.39,2.24-6.065,8.412C267.975,188.914,267.705,189.151,267.39,189.151z"/>
											</g>
										</g>
									</g>
								</g>
							</g>
						</g>
					</g>
					<g>
						<g>
							<g>
								<g>
									<g>
										<g>
											<g>
												<path style="fill:#392C31;" d="M273.219,185.364c-0.138,0-0.277-0.046-0.393-0.14c-0.543-0.44-2.191-1.522-3.267-1.246
													c-0.335,0.085-0.675-0.116-0.76-0.45c-0.086-0.334,0.116-0.675,0.45-0.76c1.878-0.48,4.116,1.284,4.366,1.487
													c0.267,0.217,0.308,0.611,0.09,0.879C273.581,185.285,273.401,185.364,273.219,185.364z"/>
											</g>
										</g>
									</g>
								</g>
							</g>
						</g>
					</g>
				</g>
				<g>
					<g>
						<g>
							<path style="fill:#392C31;" d="M271.441,159.753c0,0-8.31,7.579-11.809,5.705c-3.498-1.874,2.154-8.745,2.154-8.745
								s-12.313,6.67-17.041,4.522c-4.728-2.148,3.753-7.895,3.753-7.895s-9.398,8.362-14.749,7.867c-5.351-0.495,0-7.242,0-7.242
								s-4.893,9.462-8.122,8.649c-3.228-0.814,1.106-14.396,11.809-19.019C248.138,138.972,275.378,139.805,271.441,159.753z"/>
						</g>
					</g>
				</g>
				<g>
					<g>
						<g>
							<path style="fill:#392C31;" d="M264.182,162.631c0,0-2.734,17.337,1.634,17.415c4.368,0.079,8.766-6.671,5.625-20.294
								L264.182,162.631z"/>
						</g>
					</g>
				</g>
				<g>
					<g>
						<g>
							<g>
								<g>
									<g>
										<g>
											<g>
												<path style="fill:#F9F3E8;" d="M219.906,174.127l8.079,0.282v1.122c-0.005,0-0.01,0-0.016,0l-8.103-0.283
													c-0.309-0.011-0.551-0.27-0.54-0.58C219.337,174.359,219.584,174.106,219.906,174.127z"/>
											</g>
										</g>
									</g>
								</g>
							</g>
						</g>
					</g>
					<g>
						<g>
							<g>
								<g>
									<g>
										<g>
											<g>
												<g>
													<path style="fill:#F9F3E8;" d="M240.666,173.803c0-5.222,4.249-9.471,9.471-9.471c5.222,0,9.471,4.248,9.471,9.471
														c0,5.222-4.249,9.471-9.471,9.471C244.915,183.274,240.666,179.025,240.666,173.803z M241.788,173.803
														c0,4.604,3.746,8.349,8.35,8.349c4.604,0,8.35-3.746,8.35-8.349c0-4.604-3.746-8.35-8.35-8.35
														C245.533,165.453,241.788,169.199,241.788,173.803z"/>
												</g>
											</g>
										</g>
									</g>
								</g>
							</g>
						</g>
						<g>
							<g>
								<g>
									<g>
										<g>
											<g>
												<g>
													<path style="fill:#F9F3E8;" d="M218.298,173.803c0-5.222,4.249-9.471,9.471-9.471c5.222,0,9.471,4.248,9.471,9.471
														c0,5.222-4.249,9.471-9.471,9.471C222.547,183.274,218.298,179.025,218.298,173.803z M219.42,173.803
														c0,4.604,3.746,8.349,8.35,8.349c4.604,0,8.35-3.746,8.35-8.349c0-4.604-3.746-8.35-8.35-8.35
														C223.165,165.453,219.42,169.199,219.42,173.803z"/>
												</g>
											</g>
										</g>
									</g>
								</g>
							</g>
						</g>
						<g>
							<g>
								<g>
									<g>
										<g>
											<g>
												<g>
													<path style="fill:#F9F3E8;" d="M270.752,175.775c0.067,0,0.134-0.012,0.2-0.037c0.289-0.111,0.434-0.435,0.323-0.724
														c-2.495-6.524-12.427-3.183-12.526-3.148c-0.293,0.101-0.448,0.42-0.347,0.713c0.101,0.292,0.419,0.448,0.712,0.347
														c0.09-0.031,9.005-3.024,11.114,2.489C270.313,175.638,270.526,175.775,270.752,175.775z"/>
												</g>
											</g>
										</g>
									</g>
								</g>
							</g>
						</g>
					</g>
				</g>
				<g>
					<g>
						<g>
							<g>
								<g>
									<g>
										<g>
											<path style="fill:#F9F3E8;" d="M236.613,172.334c0.145,0,0.289-0.056,0.399-0.167c1.555-1.577,3.91-0.239,3.933-0.225
												c0.268,0.155,0.611,0.064,0.766-0.203c0.156-0.268,0.064-0.611-0.203-0.766c-1.076-0.624-3.567-1.343-5.294,0.407
												c-0.217,0.22-0.215,0.575,0.005,0.793C236.329,172.28,236.471,172.334,236.613,172.334z"/>
										</g>
									</g>
								</g>
							</g>
						</g>
					</g>
				</g>
			</g>
			<g>
				<g>
					<g>
						<g>
							<g>
								<g>
									<g>
										<g>
											<g>
												<path style="fill:#7098FA;" d="M291.037,341.882c-0.929-4.125-1.85-8.256-2.88-12.357
													c2.657-0.757,5.33-1.597,7.989-2.482c3.053-1.013,6.085-2.115,9.083-3.274c2.996-1.156,5.957-2.373,8.867-3.652
													c2.902-1.29,5.741-2.652,8.492-4.079c2.742-1.432,5.401-2.929,7.862-4.505c1.23-0.786,2.426-1.581,3.523-2.416
													c0.545-0.414,1.082-0.828,1.589-1.248c0.504-0.419,0.984-0.848,1.429-1.269c0.7-0.648,1.314-1.307,1.818-1.927
													c0.147-0.178,0.282-0.354,0.408-0.522l0.022-0.027l-0.527-0.644l-0.941-1.15c-0.491-0.599-0.975-1.2-1.506-1.812
													c-1.045-1.215-2.065-2.428-3.128-3.646l-3.222-3.652c-2.193-2.431-4.364-4.88-6.606-7.31l-1.669-1.825l-1.689-1.818
													l-2.366-2.557l-1.009-1.089l-1.227-1.317l-2.167-2.325l-3.42-3.63c-2.275-2.426-4.56-4.849-6.858-7.262l-13.726-14.472
													l-0.086-0.091c-5.785-6.103-5.53-15.74,0.569-21.527c6.046-5.735,15.574-5.526,21.379,0.415l3.597,3.69l3.531,3.692
													c1.178,1.228,2.34,2.471,3.505,3.712c1.164,1.24,2.33,2.481,3.485,3.732c2.312,2.497,4.612,5.013,6.906,7.534
													l3.42,3.807l0.454,0.51l2.95,3.323c1.136,1.276,2.262,2.571,3.385,3.865l1.683,1.942l0.756,0.887l0.92,1.077
													c2.236,2.604,4.462,5.258,6.668,7.929l3.289,4.072c1.093,1.372,2.182,2.784,3.273,4.174
													c0.544,0.684,1.088,1.42,1.631,2.148l1.627,2.181l0.407,0.547l0.102,0.136l0.051,0.068l0.08,0.115l0.341,0.489
													c0.226,0.329,0.447,0.659,0.668,0.989c0.108,0.16,0.218,0.346,0.326,0.527l0.321,0.546
													c0.211,0.37,0.421,0.724,0.622,1.111c0.199,0.399,0.394,0.802,0.582,1.207l0.278,0.61
													c0.089,0.211,0.175,0.432,0.261,0.651c0.169,0.436,0.334,0.876,0.49,1.318c0.153,0.452,0.284,0.932,0.414,1.4
													c0.129,0.473,0.254,0.939,0.346,1.441c0.097,0.493,0.185,0.989,0.263,1.484c0.072,0.499,0.115,1.013,0.159,1.519
													l0.053,0.761c0.014,0.254,0.01,0.509,0.015,0.766c0.001,0.51-0.005,1.021-0.022,1.527
													c-0.036,0.501-0.081,1.003-0.137,1.501c-0.03,0.248-0.055,0.501-0.093,0.744l-0.128,0.723
													c-0.339,1.952-0.927,3.699-1.595,5.32c-0.346,0.774-0.712,1.573-1.102,2.257c-0.196,0.35-0.391,0.709-0.595,1.046
													l-0.614,0.968c-1.666,2.543-3.461,4.474-5.227,6.145c-1.772,1.668-3.545,3.044-5.281,4.301
													c-0.871,0.632-1.74,1.209-2.603,1.773c-0.86,0.567-1.716,1.1-2.571,1.617c-1.714,1.021-3.402,1.972-5.095,2.86
													c-3.379,1.78-6.743,3.311-10.106,4.728c-3.363,1.406-6.725,2.68-10.087,3.862c-3.358,1.197-6.722,2.304-10.094,3.335
													c-3.374,1.034-6.76,1.982-10.16,2.9c-3.126,0.835-5.227,1.364-8.427,2.09C293.335,347.26,291.67,344.69,291.037,341.882
													z"/>
											</g>
										</g>
									</g>
								</g>
							</g>
						</g>
					</g>
				</g>
				<g>
					<g>
						<g>
							<path style="fill:#392C31;" d="M301.907,264.601c-0.212,0-0.425-0.074-0.597-0.224l-17.856-15.617
								c-0.378-0.33-0.416-0.904-0.086-1.281c0.33-0.378,0.904-0.416,1.281-0.086l17.856,15.617c0.378,0.33,0.416,0.904,0.086,1.281
								C302.411,264.496,302.16,264.601,301.907,264.601z"/>
						</g>
					</g>
					<g>
						<g>
							<path style="fill:#392C31;" d="M289.753,253.827h-6.308c-0.502,0-0.908-0.407-0.908-0.908c0-0.502,0.406-0.908,0.908-0.908
								h6.308c0.502,0,0.908,0.407,0.908,0.908C290.661,253.42,290.255,253.827,289.753,253.827z"/>
						</g>
					</g>
				</g>
				<g>
					<g>
						<g>
							<g>
								<g>
									<g>
										<g>
											<g>
												<g>
													<path style="fill:#392C31;" d="M355.757,307.146c-0.086,0.129-0.214,0.214-0.353,0.249
														c-0.157,0.039-0.327,0.014-0.471-0.082c-4.532-2.991-12.293-2.901-16.125-2.638c0.147-0.178,0.282-0.354,0.408-0.522
														l0.022-0.027l-0.527-0.644c0.347-0.025,0.726-0.049,1.133-0.069c2.274-2.441,8.612-5.04,8.888-5.152
														c0.305-0.125,0.652,0.02,0.774,0.326c0.124,0.305-0.021,0.65-0.326,0.774c-0.058,0.024-4.885,2.003-7.488,3.996
														c4.229-0.052,10.045,0.424,13.895,2.966C355.863,306.502,355.939,306.87,355.757,307.146z"/>
												</g>
											</g>
										</g>
									</g>
								</g>
							</g>
						</g>
					</g>
				</g>
				<g>
					<g>
						<g>
							<g>
								<path style="fill:#B96359;" d="M297.708,330.232c0,0-3.071-5.652-4.214-11.303c-0.907-4.48-3.657-5.752-3.657-5.752
									c-0.37,3.184-0.361,6.716,0.316,10.861c0,0-0.526-1.593-3.05-0.935c-2.525,0.658-12.671,3.406-12.67,5.445
									c0.002,4.663,10.911,1.837,10.911,1.837s-11.682,2.885-11.202,6.126c0.388,2.622,11.109,2.525,11.109,2.525
									s-10.299,0.671-8.856,4.3c1.534,3.857,10.954,0.846,10.954,0.846s-6.701,3.69-5.958,5.04
									c1.07,1.944,5.181,2.278,11.688,0.301C299.74,347.5,297.708,330.232,297.708,330.232z"/>
							</g>
						</g>
					</g>
				</g>
			</g>
			<g>
				<g>
					<path style="fill:#392C31;" d="M207.762,294.691c-0.27,0-0.538-0.12-0.717-0.35c-10.542-13.529-6.813-21.861-4.09-27.945
						c0.512-1.143,0.995-2.222,1.352-3.252c2.452-7.062,7.942-27.921,7.997-28.131c0.128-0.485,0.626-0.773,1.109-0.647
						c0.485,0.128,0.775,0.624,0.647,1.109c-0.055,0.21-5.563,21.137-8.038,28.265c-0.383,1.105-0.882,2.219-1.41,3.398
						c-2.676,5.979-6.007,13.419,3.865,26.087c0.308,0.396,0.238,0.966-0.158,1.274
						C208.153,294.628,207.957,294.691,207.762,294.691z"/>
				</g>
			</g>
			<g>
				<g>
					<g>
						<g>
							<g>
								<path style="fill:#7098FA;" d="M265.179,193.953c3.752,1.694,6.901,1.72,9.422,0.735c0.402-0.159,0.788-0.343,1.16-0.549
									c5.476-3.058,7.379-11.195,5.246-15.766c-0.752-1.617-1.754-2.793-2.876-3.633c-0.34-0.261-0.69-0.486-1.051-0.684
									c-4.581-2.527-10.435-0.601-10.435-0.601C259.079,186.941,265.179,193.953,265.179,193.953z"/>
							</g>
						</g>
					</g>
				</g>
				<g>
					<g>
						<g>
							<g>
								<g>
									<path style="fill:#F9F3E8;" d="M250.047,194.461c10.983,1.115,17.695-4.952,18.008-5.242
										c0.254-0.235,0.269-0.631,0.034-0.885c-0.235-0.254-0.631-0.269-0.885-0.035c-0.102,0.093-8.28,7.433-21.01,4.207
										c-0.337-0.084-0.676,0.118-0.761,0.453c-0.085,0.335,0.118,0.676,0.453,0.761
										C247.333,194.087,248.722,194.326,250.047,194.461z"/>
								</g>
							</g>
						</g>
					</g>
				</g>
				<g>
					<g>
						<g>
							<g>
								<g>
									<path style="fill:#392C31;" d="M242.578,192.51c-0.112,1.101,0.69,2.084,1.791,2.196c1.101,0.112,2.084-0.69,2.196-1.791
										c0.112-1.101-0.69-2.084-1.791-2.196C243.673,190.608,242.69,191.409,242.578,192.51z"/>
								</g>
							</g>
						</g>
					</g>
				</g>
				<g>
					<g>
						<g>
							<g>
								<g>
									<g>
										<path style="fill:#F9F3E8;" d="M232.683,152.239c1.631-1.968,3.637-3.571,5.876-4.756
											c2.961-2.338,6.694-3.447,11.135-3.299c3.41,0.117,6.428,0.87,9.029,2.247c1.812,0.963,3.423,2.225,4.823,3.793
											c1.062,1.188,1.962,2.501,2.719,3.88c1.056,1.922,1.835,3.973,2.414,6c0.457,1.62,0.787,3.226,1.019,4.739
											c0.779,5.063,0.492,9.087,0.487,9.162l1.568,0.122c0.026-0.342,0.342-4.77-0.584-10.22
											c-0.822-4.822-2.617-10.448-6.452-14.731c-0.082-0.088-0.16-0.179-0.242-0.265c-3.682-3.975-8.639-6.094-14.724-6.296
											c-5.827-0.195-10.557,1.618-14.064,5.384C234.502,149.273,233.509,150.709,232.683,152.239z"/>
									</g>
								</g>
							</g>
						</g>
					</g>
				</g>
				<g>
					<g>
						<g>
							<g>
								<g>
									<g>
										<g>
											<g>
												<path style="fill:#6369D3;" d="M274.601,194.689c0.402-0.159,0.788-0.343,1.16-0.549
													c-2.075-8.925,0.517-15.883,2.37-19.399c-0.34-0.261-0.69-0.486-1.051-0.684
													C275.107,177.779,272.314,185.206,274.601,194.689z"/>
											</g>
										</g>
									</g>
								</g>
							</g>
						</g>
					</g>
				</g>
			</g>
		</g>
	</g>
</g>
<g id="TEXTS">
	
		<text transform="matrix(0.9928 -0.12 0.12 0.9928 82.4019 389.841)" style="fill:#806B73; font-family:'Montserrat-Bold'; font-size:24.4023px;">NEWS</text>
</g>
</svg>
